<ttFont>
          <CharString index="0">
            rmoveto
            -106 callsubr
            return
          </CharString>
          <CharString index="1">
            -96 callsubr
            -98 callsubr
            return
          </CharString>
          <CharString index="2">
            rmoveto
            -180 -140 -51 -104 -100 hvcurveto
            -99 -101 -50 -143 -185 vvcurveto
            -181 51 -143 101 -106 vhcurveto
            -106 102 137 -53 172 hhcurveto
            179 139 52 103 100 hvcurveto
            100 104 50 145 185 vvcurveto
            5 354 -234 234 -333 -4 rrcurveto
            -4 -291 -79 callsubr
            -47 104 195 195 48 98 120 hvcurveto
            endchar
          </CharString>
          <CharString index="3">
            rmoveto
            -25 -39 -38 -48 -51 -59 -50 -59 -48 -51 -46 -43 -101 callsubr
            return
          </CharString>
          <CharString index="4">
            -75 callgsubr
            -28 -32 -27 -86 callsubr
            48 30 71 48 93 66 93 66 74 54 53 43 rrcurveto
            return
          </CharString>
          <CharString index="5">
            -62 callgsubr
            -103 callgsubr
          </CharString>
          <CharString index="6">
            rrcurveto
            -29 258 vlineto
            46 29 65 50 83 71 78 -68 67 -50 56 -32 rrcurveto
            254 29 hlineto
            -108 108 -85 100 -63 91 rrcurveto
            return
          </CharString>
          <CharString index="7">
            1258 -42 callgsubr
            -388 -474 hlineto
            -48 -5 -36 -11 -24 vhcurveto
            -92 144 -258 438 rlineto
            -432 hlineto
            85 -134 112 -176 89 -139 rrcurveto
            -216 -82 -26 -155 -138 vvcurveto
            -471 387 474 vlineto
            51 3 34 16 25 vhcurveto
            351 -584 rlineto
            433 hlineto
            -87 135 -110 174 -89 141 rrcurveto
            216 81 22 154 139 vvcurveto
            return
          </CharString>
          <CharString index="8">
            rmoveto
            -377 hlineto
            -50 -582 rlineto
            -307 -27 -129 -107 -153 hhcurveto
            -260 hlineto
            -12 118 rlineto
            16 hlineto
            106 292 24 393 31 hvcurveto
            39 461 rlineto
            -374 hlineto
            -40 -466 rlineto
            -12 -141 -81 5 0 vvcurveto
            return
          </CharString>
          <CharString index="9">
            58 37 34 52 52 -37 35 -58 hvcurveto
            return
          </CharString>
          <CharString index="10">
            1915 -102 callgsubr
            return
          </CharString>
          <CharString index="11">
            -59 -80 callgsubr
            34 -32 60 return
          </CharString>
          <CharString index="12">
            844 7 callsubr
            -135 -125 -34 -67 -117 hvcurveto
            -117 -67 -91 -92 -67 -117 rrcurveto
            -67 -118 -33 -124 -133 vvcurveto
            -132 32 -124 65 -115 vhcurveto
            65 -115 91 -93 117 -69 rrcurveto
            -69 117 127 -34 138 hhcurveto
            136 126 34 67 115 hvcurveto
            115 67 91 91 67 115 rrcurveto
            67 115 34 126 136 vvcurveto
            139 -35 126 -69 118 vhcurveto
            -69 117 -93 90 -115 65 rrcurveto
            65 -115 -125 32 -130 hhcurveto
            -164 vmoveto
            107 98 -27 -53 91 hvcurveto
            91 -53 72 -71 51 -91 rrcurveto
            52 -91 26 -97 -105 vvcurveto
            -105 -26 -99 -53 -91 vhcurveto
            -53 -91 -71 -71 -91 -53 rrcurveto
            -52 -91 -98 -26 -105 hhcurveto
            -105 -97 26 51 -91 hvcurveto
            -91 52 -72 72 -53 91 rrcurveto
            -53 92 -26 99 105 vvcurveto
            105 26 98 52 91 vhcurveto
            53 91 71 72 91 52 rrcurveto
            53 91 99 26 105 hhcurveto
            return
          </CharString>
          <CharString index="13">
            1913 -104 callsubr
            return
          </CharString>
          <CharString index="14">
            1913 -103 callsubr
            return
          </CharString>
          <CharString index="15">
            rmoveto
            432 hlineto
            -87 callsubr
            -81 324 -70 callsubr
            rrcurveto
            return
          </CharString>
          <CharString index="16">
            -121 -128 -61 -187 -242 vvcurveto
            -246 61 -187 122 -129 vhcurveto
            -129 123 176 -64 229 hhcurveto
            return
          </CharString>
          <CharString index="17">
            -92 callsubr
            hintmask 11011000
            -86 callgsubr
          </CharString>
          <CharString index="18">
            1913 -99 callgsubr
            return
          </CharString>
          <CharString index="19">
            rmoveto
            295 -49 callgsubr
            -496 hlineto
            -95 callgsubr
            endchar
          </CharString>
          <CharString index="20">
            -483 1468 rlineto
            -527 -83 callgsubr
            return
          </CharString>
          <CharString index="21">
            -32 -65 -71 -103 -110 rrcurveto
            -29 260 vlineto
            return
          </CharString>
          <CharString index="22">
            -159 -78 -109 -233 -15 hvcurveto
            180 hlineto
            65 12 24 33 36 hhcurveto
            return
          </CharString>
          <CharString index="23">
            -52 callsubr
            -20 -114 -19 -71 callgsubr
            return
          </CharString>
          <CharString index="24">
            394 vstem
            621 408 rmoveto
            62 279 -58 callgsubr
            168 6 -182 -176 -174 -6 -194 -168 -228 -228 22 0 vhcurveto
            -293 vlineto
            0 174 -29 281 303 266 112 556 -67 callsubr
            -47 154 -10 vhcurveto
            return
          </CharString>
          <CharString index="25">
            586 rmoveto
            876 -219 vlineto
            -340 -274 146 -170 58 49 36 33 15 16 rlinecurve
            15 16 11 14 6 13 -2 -11 -2 -33 -3 -55 rrcurveto
            -2 -55 -1 -40 -23 vvcurveto
            -356 vlineto
            return
          </CharString>
          <CharString index="26">
            1569 -90 callgsubr
            return
          </CharString>
          <CharString index="27">
            -79 callgsubr
            endchar
          </CharString>
          <CharString index="28">
            rmoveto
            123 45 -100 -193 -195 -45 -104 -121 -123 return
          </CharString>
          <CharString index="29">
            29 callsubr
            126 979 rmoveto
            0 64 7 74 4 vhcurveto
            -595 vlineto
            -77 -21 -30 -56 -62 -75 14 0 vhcurveto
            -279 vlineto
            0 83 -42 100 341 78 181 233 vhcurveto
            618 vlineto
            2 41 -6 -1 35 hhcurveto
            -26 callgsubr
            hvcurveto
            -821 389 838 40 callsubr
            179 -477 -300 -334 -37 0 vhcurveto
            return
          </CharString>
          <CharString index="30">
            -4 callgsubr
            66 -61 callsubr
            -166 vlineto
            -153 -41 -120 -155 -128 -148 7 11 -95 vhcurveto
            -303 vlineto
            -21 113 117 -6 178 hhcurveto
            458 89 291 294 hvcurveto
            164 vlineto
            295 -120 -37 callgsubr
            return
          </CharString>
          <CharString index="31">
            rmoveto
            473 -77 callgsubr
            hlineto
            endchar
          </CharString>
          <CharString index="32">
            -4 callgsubr
            180 980 rmoveto
            0 95 29 104 57 26 -48 -77 vhcurveto
            -335 vlineto
            -163 -119 -58 -132 -60 -68 15 0 vhcurveto
            -33 -343 rlineto
            0 67 -20 56 200 108 202 0 vhcurveto
            17 hlineto
            61 -182 rlineto
            291 902 hlineto
            232 -52 181 -367 -125 -126 -32 0 vhcurveto
            return
          </CharString>
          <CharString index="33">
            1410 13 callsubr
            535 23 callgsubr
            629 1583 -104 callgsubr
          </CharString>
          <CharString index="34">
            vstem
            1235 -42 callgsubr
            -386 hlineto
            -25 -298 -7 -77 -14 -70 -20 -54 rlinecurve
            -310 499 rlineto
            -428 hlineto
            462 -709 237 -296 -143 9 rlineto
            -526 -299 1153 220 hlineto
            -243 292 197 183 19 228 10 111 rlinecurve
            return
          </CharString>
          <CharString index="35">
            -58 -36 -33 -54 -54 36 -72 callgsubr
            return
          </CharString>
          <CharString index="36">
            hlineto
            -20 -177 -33 -195 -45 -211 rrcurveto
            278 hlineto
            return
          </CharString>
          <CharString index="37">
            rmoveto
            -311 hlineto
            61 229 39 153 17 79 return
          </CharString>
          <CharString index="38">
            1108 -338 rmoveto
            -47 callgsubr
            33 -112 -28 callgsubr
            121 94 40 80 66 hvcurveto
            67 81 33 113 146 vvcurveto
            141 -34 111 -69 82 vhcurveto
            82 -69 -92 41 -117 hhcurveto
            return
          </CharString>
          <CharString index="39">
            1589 rmoveto
            -145 -62 -57 -117 -115 69 -57 138 139 70 57 115 115 -64 59 -145 hvcurveto
            return
          </CharString>
          <CharString index="40">
            557 -311 110 -257 -257 -311 -104 -363 -377 284 return
          </CharString>
          <CharString index="41">
            341 rmoveto
            542 -295 vlineto
            -350 -555 rlineto
            -188 370 -140 275 140 125 201 vlineto
            -400 hmoveto
            -157 hlineto
            102 168 15 22 20 44 27 67 rlinecurve
            -5 -44 -2 -45 -46 vvcurveto
            endchar
          </CharString>
          <CharString index="42">
            198 274 324 629 241 0 -20 return
          </CharString>
          <CharString index="43">
            128 15 90 29 53 vhcurveto
            53 29 48 26 66 hhcurveto
            96 41 -77 -151 hvcurveto
            -618 391 737 vlineto
            132 -35 101 -70 74 vhcurveto
            73 -69 -99 36 -124 hhcurveto
            -153 -122 -53 -108 -67 hvcurveto
            endchar
          </CharString>
          <CharString index="44">
            -4 callgsubr
            82 992 rmoveto
            0 231 23 129 112 85 -47 -146 vhcurveto
            -523 -557 -299 1086 299 -141 540 40 callsubr
            179 -478 -214 -141 -17 -9 -42 vhcurveto
            return
          </CharString>
          <CharString index="45">
            -656 276 23 hstem
            57 455 -74 callgsubr
            endchar
          </CharString>
          <CharString index="46">
            995 rmoveto
            0 178 18 146 217 26 -128 -154 vhcurveto
            return
          </CharString>
          <CharString index="47">
            -165 0 -55 callsubr
            return
          </CharString>
          <CharString index="48">
            -4 callgsubr
            51 993 rmoveto
            11 106 146 11 108 hhcurveto
            -26 callgsubr
            hvcurveto
            -822 388 822 vlineto
            297 -69 196 -477 -160 -141 -11 -10 -97 vhcurveto
            return
          </CharString>
          <CharString index="49">
            343 -20 329 852 324 return
          </CharString>
          <CharString index="50">
            -232 -177 -64 -129 -122 return
          </CharString>
          <CharString index="51">
            15 callsubr
            980 rmoveto
            0 310 35 189 -26 callgsubr
            vhcurveto
            -822 389 822 40 callsubr
            196 -3 callgsubr
            return
          </CharString>
          <CharString index="52">
            322 276 317 230 317 return
          </CharString>
          <CharString index="53">
            0 72 133 124 150 11 -129 -149 vhcurveto
            -430 -231 -299 626 729 vlineto
            336 -86 250 -344 -228 -133 -152 0 vhcurveto
            return
          </CharString>
          <CharString index="54">
            -51 -113 -59 -187 -67 -261 15 -22 rcurveline
            342 hlineto
            21 181 32 194 return
          </CharString>
          <CharString index="55">
            22 callsubr
            -7 -69 -14 -91 -20 -115 return
          </CharString>
          <CharString index="56">
            493 -244 259 -465 return
          </CharString>
          <CharString index="57">
            120 123 -73 69 -132 hvcurveto
            return
          </CharString>
          <CharString index="58">
            rmoveto
            571 vlineto
            -65 callgsubr
            vlineto
            endchar
          </CharString>
          <CharString index="59">
            rmoveto
            -58 -35 -33 -54 -54 35 -72 callgsubr
            return
          </CharString>
          <CharString index="60">
            -16 239 342 240 22 callgsubr
            338 244 -21 -20 hstemhm
            37 301 151 302 358 301 152 301 return
          </CharString>
          <CharString index="61">
            -39 -43 -81 -111 -192 vvcurveto
            -421 201 -245 370 347 218 245 421 423 -209 245 -359 vhcurveto
            return
          </CharString>
          <CharString index="62">
            47 37 -33 -51 -49 -37 -35 -47 -56 -28 35 49 51 37 33 47 hvcurveto
            return
          </CharString>
          <CharString index="63">
            16 -20 290 592 291 return
          </CharString>
          <CharString index="64">
            104 416 590 416 return
          </CharString>
          <CharString index="65">
            vstem
            745 588 rmoveto
            -387 483 -282 -149 272 -347 -272 -348 282 -147 387 481 rlineto
            return
          </CharString>
          <CharString index="66">
            vstem
            743 922 rmoveto
            -280 149 -389 -483 rlineto
            -27 vlineto
            389 -481 280 147 -272 348 rlineto
            return
          </CharString>
          <CharString index="67">
            261 -20 329 1153 -20 return
          </CharString>
          <CharString index="68">
            1295 return
          </CharString>
          <CharString index="69">
            654 1003 rmoveto
            0 27 5 21 125 48 -85 -258 -268 -62 -106 -119 -121 -54 127 247 vhcurveto
            return
          </CharString>
          <CharString index="70">
            -51 -25 64 153 151 24 66 52 hvcurveto
            return
          </CharString>
          <CharString index="71">
            244 -244 342 -246 244 hstemhm
            return
          </CharString>
          <CharString index="72">
            754 -52 callgsubr
            rlineto
            -302 hlineto
            -753 -31 callgsubr
            rlineto
            return
          </CharString>
          <CharString index="73">
            -52 callgsubr
            -20 return
          </CharString>
          <CharString index="74">
            117 43 45 72 104 vvcurveto
            67 -29 52 -58 38 vhcurveto
            39 -57 -78 19 -97 hhcurveto
            -129 -115 -38 -77 -99 hvcurveto
            return
          </CharString>
          <CharString index="75">
            rmoveto
            397 -52 callgsubr
            -397 hlineto
            endchar
          </CharString>
          <CharString index="76">
            28 -20 315 551 307 hstem
            33 callsubr
            vstem
            3 callsubr
            return
          </CharString>
          <CharString index="77">
            1108 -42 callgsubr
            -1085 -299 621 hlineto
            -45 -38 -48 -67 -105 vvcurveto
            -786 388 779 vlineto
            return
          </CharString>
          <CharString index="78">
            -49 141 rlineto
            -295 -1133 391 496 hlineto
            return
          </CharString>
          <CharString index="79">
            hstem
            133 391 322 391 vstem
            return
          </CharString>
          <CharString index="80">
            -623 -38 callgsubr
            -20 return
          </CharString>
          <CharString index="81">
            322 -473 276 return
          </CharString>
          <CharString index="82">
            57 -116 -124 29 -131 hhcurveto
            -191 -147 -52 -104 -103 hvcurveto
            -103 -102 -52 -146 -188 vvcurveto
            return
          </CharString>
          <CharString index="83">
            -85 -71 -128 -144 -336 vvcurveto
            -445 388 445 vlineto
            163 0 146 90 151 vhcurveto
            return
          </CharString>
          <CharString index="84">
            630 -389 -630 vlineto
            -432 245 -252 310 373 207 253 431 vhcurveto
            return
          </CharString>
          <CharString index="85">
            -70 callgsubr
            395 21 -18 callgsubr
            return
          </CharString>
          <CharString index="86">
            59 61 57 29 54 hhcurveto
            43 22 -19 -39 -23 -11 -26 -22 -30 hvcurveto
            -21 -30 -39 -43 -56 -56 rrcurveto
            return
          </CharString>
          <CharString index="87">
            hstem
            30 callsubr
            336 398 vstem
            return
          </CharString>
          <CharString index="88">
            hstem
            86 395 344 355 vstem
            return
          </CharString>
          <CharString index="89">
            -65 callsubr
            444 21 7 callgsubr
            hintmask 10111000
            return
          </CharString>
          <CharString index="90">
            83 -20 309 844 -20 return
          </CharString>
          <CharString index="91">
            -5 callsubr
            82 118 796 -20 return
          </CharString>
          <CharString index="92">
            rmoveto
            -58 -7 callgsubr
            58 57 36 return
          </CharString>
          <CharString index="93">
            -34 callsubr
            hstem
            return
          </CharString>
          <CharString index="94">
            -71 -109 3 hvcurveto
            return
          </CharString>
          <CharString index="95">
            158 395 return
          </CharString>
          <CharString index="96">
            rmoveto
            -9 callsubr
            33 53 -54 callgsubr
            return
          </CharString>
          <CharString index="97">
            rmoveto
            117 -382 -117 135 -202 111 202 vlineto
            endchar
          </CharString>
          <CharString index="98">
            -58 4 callsubr
            58 57 36 return
          </CharString>
          <CharString index="99">
            hstem
            137 391 vstem
            return
          </CharString>
          <CharString index="100">
            -402 -344 278 484 301 485 279 0 -20 hstemhm
            return
          </CharString>
          <CharString index="101">
            vstem
            436 934 rmoveto
            -15 callgsubr
            return
          </CharString>
          <CharString index="102">
            327 -11 callgsubr
            return
          </CharString>
          <CharString index="103">
            rmoveto
            120 9 59 60 108 hhcurveto
            93 68 -13 callsubr
            return
          </CharString>
          <CharString index="104">
            307 -20 -20 38 callgsubr
            return
          </CharString>
          <CharString index="105">
            -8 callgsubr
            450 21 21 callgsubr
            return
          </CharString>
          <CharString index="106">
            16 callgsubr
            135 388 307 15 callsubr
            hmoveto
            return
          </CharString>
          <CharString index="107">
            53 71 53 21 67 hhcurveto
            67 25 -35 -33 -55 -44 -23 -95 hvcurveto
            return
          </CharString>
          <CharString index="108">
            512 -152 138 -323 -56 -41 -7 -6 -39 vhcurveto
            return
          </CharString>
          <CharString index="109">
            -5 callsubr
            996 -20 return
          </CharString>
          <CharString index="110">
            526 12 callsubr
            rmoveto
            -391 return
          </CharString>
          <CharString index="111">
            -36 -64 callgsubr
            36 -32 return
          </CharString>
          <CharString index="112">
            418 vstem
            299 return
          </CharString>
          <CharString index="113">
            -39 callsubr
            -20 hstem
            return
          </CharString>
          <CharString index="114">
            1483 rmoveto
            return
          </CharString>
          <CharString index="115">
            -130 1305 -20 hstem
            72 1011 vstem
            1083 return
          </CharString>
          <CharString index="116">
            rmoveto
            367 -269 -367 -372 -268 372 return
          </CharString>
          <CharString index="117">
            -625 -344 254 1339 254 hstem
            return
          </CharString>
          <CharString index="118">
            -11 callgsubr
            288 173 return
          </CharString>
          <CharString index="119">
            1556 return
          </CharString>
          <CharString index="120">
            173 hstem
            return
          </CharString>
          <CharString index="121">
            -64 1548 21 hstem
            264 692 vstem
            return
          </CharString>
          <CharString index="122">
            29 callsubr
            135 return
          </CharString>
          <CharString index="123">
            389 rlineto
            -268 hlineto
            -72 -389 rlineto
            return
          </CharString>
          <CharString index="124">
            116 -62 67 -129 32 vhcurveto
            9 vlineto
            return
          </CharString>
          <CharString index="125">
            13 callsubr
            534 23 callgsubr
            628 return
          </CharString>
          <CharString index="126">
            323 856 324 hstem
            104 406 return
          </CharString>
          <CharString index="127">
            345 hintmask 00000000
            hintmask 11101000
            return
          </CharString>
          <CharString index="128">
            180 168 188 return
          </CharString>
          <CharString index="129">
            rmoveto
            -342 hlineto
            return
          </CharString>
          <CharString index="130">
            1139 return
          </CharString>
          <CharString index="131">
            -251 -11 callgsubr
            535 299 return
          </CharString>
          <CharString index="132">
            hstemhm
            158 350 690 352 return
          </CharString>
          <CharString index="133">
            -143 rmoveto
            117 -367 -117 return
          </CharString>
          <CharString index="134">
            -57 -113 -122 -29 -129 hhcurveto
            return
          </CharString>
          <CharString index="135">
            -75 -71 -119 hvcurveto
            -72 hlineto
            endchar
          </CharString>
          <CharString index="136">
            389 vstem
            return
          </CharString>
          <CharString index="137">
            86 397 return
          </CharString>
          <CharString index="138">
            -347 vlineto
            101 84 66 58 31 return
          </CharString>
          <CharString index="139">
            145 41 48 128 49 vhcurveto
            return
          </CharString>
          <CharString index="140">
            -12 callgsubr
            305 398 return
          </CharString>
          <CharString index="141">
            -11 17 19 vvcurveto
            31 32 16 64 return
          </CharString>
          <CharString index="142">
            hstem
            444 269 vstem
            713 return
          </CharString>
          <CharString index="143">
            309 171 125 243 return
          </CharString>
          <CharString index="144">
            388 hintmask 00000000
            return
          </CharString>
          <CharString index="145">
            hlineto
            -72 -139 rlineto
            return
          </CharString>
          <CharString index="146">
            1581 rmoveto
            return
          </CharString>
          <CharString index="147">
            vlineto
            297 -70 return
          </CharString>
        <CharString name=".notdef">
          -757 endchar
        </CharString>
        <CharString name="A">
          -65 callsubr
          7 callgsubr
          hintmask 10110000
          1487 hmoveto
          -87 callsubr
          73 -274 rlineto
          -154 598 -70 callsubr
          rrcurveto
          hintmask 11010000
          -86 callgsubr
        </CharString>
        <CharString name="AE">
          648 0 322 -48 328 -4 317 213 334 -317 317 hstemhm
          969 397 hintmask 10101100
          1839 1145 rmoveto
          317 -1221 vlineto
          -628 -31 callgsubr
          rlineto
          442 hlineto
          hintmask 01001100
          100 274 rlineto
          437 hlineto
          hintmask 10101100
          -274 870 -26 callsubr
          438 317 -438 230 vlineto
          hintmask 01010100
          -508 -17 rmoveto
          111 -526 -316 hlineto
          endchar
        </CharString>
        <CharString name="Aacute">
          -18 callsubr
          1090 -93 callsubr
          -35 -1892 -90 callsubr
        </CharString>
        <CharString name="Acircumflex">
          -65 callsubr
          137 29 7 callgsubr
          hintmask 10111000
          549 -94 callsubr
          113 -1913 -90 callsubr
        </CharString>
        <CharString name="Adieresis">
          -65 callsubr
          153 13 callgsubr
          332 -39 callgsubr
          hintmask 10111100
          502 -97 callsubr
          72 -1915 -92 callsubr
          hintmask 11011100
          -86 callgsubr
        </CharString>
        <CharString name="Agrave">
          -18 callsubr
          398 -89 callsubr
          227 -1913 -90 callsubr
        </CharString>
        <CharString name="Aring">
          198 274 324 870 -20 209 170 hstem
          481 21 callsubr
          vstem
          1487 hmoveto
          -483 1468 rlineto
          -9 hlineto
          14 32 8 36 39 vvcurveto
          149 -115 103 -157 -161 -103 -99 -155 -39 7 -35 12 -31 vhcurveto
          -23 -83 callgsubr
          73 -274 rlineto
          -310 1657 rmoveto
          -45 callsubr
          156 -1059 -70 callsubr
          -86 callgsubr
        </CharString>
        <CharString name="Atilde">
          -65 callsubr
          135 244 22 callgsubr
          7 callgsubr
          hintmask 10110100
          983 -9 callgsubr
          hintmask 10101100
          -60 callgsubr
          hintmask 10110100
          -43 callgsubr
          -57 callgsubr
          -110 -1925 -92 callsubr
          hintmask 11010100
          -86 callgsubr
        </CharString>
        <CharString name="B">
          91 0 305 307 289 262 299 hstemhm
          -12 callsubr
          297 405 -378 407 hintmask 11110100
          -19 callgsubr
          569 vlineto
          172 136 38 76 99 hvcurveto
          100 77 50 104 133 vvcurveto
          179 -77 111 -181 48 vhcurveto
          10 vlineto
          hintmask 11111000
          69 17 55 37 42 58 rrcurveto
          42 58 21 70 82 vvcurveto
          249 -190 115 -397 vhcurveto
          -115 -299 rmoveto
          111 hlineto
          124 62 -41 -82 -92 -65 -47 -113 hvcurveto
          -119 hlineto
          -289 vmoveto
          131 hlineto
          hintmask 11110100
          125 68 -54 -97 -104 -62 -52 -123 hvcurveto
          -139 hlineto
          endchar
        </CharString>
        <CharString name="C">
          40 -20 19 callsubr
          vstem
          1202 395 rmoveto
          -50 callgsubr
          121 311 rlineto
          -41 callgsubr
          -128 118 169 -64 221 18 callgsubr
          endchar
        </CharString>
        <CharString name="CR">
          -757 endchar
        </CharString>
        <CharString name="Ccedilla">
          40 -492 207 265 19 callsubr
          111 288 vstem
          1266 1380 rmoveto
          -41 callgsubr
          80 -87 103 -57 127 -28 rrcurveto
          -45 38 callsubr
          -81 callgsubr
          3 10 rlineto
          -1 15 15 0 16 18 callgsubr
          334 vlineto
          -50 callgsubr
          endchar
        </CharString>
        <CharString name="D">
          214 0 324 819 319 -25 callgsubr
          435 411 vstem
          -19 callgsubr
          473 vlineto
          243 189 66 132 134 hvcurveto
          135 132 67 188 244 vvcurveto
          226 -64 174 -128 120 vhcurveto
          120 -127 -181 60 -235 hhcurveto
          15 callgsubr
          115 hlineto
          216 104 -127 -268 -287 -107 -137 -240 hvcurveto
          -88 hlineto
          endchar
        </CharString>
        <CharString name="E">
          -60 callsubr
          -25 callgsubr
          vstem
          1026 1145 rmoveto
          -77 callgsubr
          230 vlineto
          endchar
        </CharString>
        <CharString name="Eacute">
          -17 callgsubr
          908 -93 callsubr
          -355 -747 -76 callsubr
        </CharString>
        <CharString name="Ecircumflex">
          -60 callsubr
          123 29 -25 callgsubr
          vstem
          366 -94 callsubr
          -206 -768 -76 callsubr
        </CharString>
        <CharString name="Edieresis">
          -60 callsubr
          139 13 callgsubr
          150 342 -334 395 76 345 hintmask 00000000
          hintmask 11111010
          320 -97 callsubr
          hintmask 11100100
          -248 -770 -76 callsubr
        </CharString>
        <CharString name="Egrave">
          -17 callgsubr
          216 -89 callsubr
          -93 -768 -76 callsubr
        </CharString>
        <CharString name="Eth">
          214 0 324 239 320 260 319 -25 callgsubr
          436 410 vstem
          158 12 callgsubr
          -579 -127 -320 127 -563 473 vlineto
          487 281 274 488 453 -266 247 -469 hvcurveto
          15 callgsubr
          115 hlineto
          216 105 -127 -268 -287 -108 -137 -240 hvcurveto
          -88 239 211 320 -211 hlineto
          endchar
        </CharString>
        <CharString name="Euro">
          -89 -20 323 164 205 86 205 196 324 hstemhm
          182 387 hintmask 00000000
          hintmask 11111000
          55 963 rmoveto
          -205 129 vlineto
          -2 -43 rlineto
          -22 vlineto
          2 -21 rlineto
          -129 -205 156 hlineto
          -313 63 218 -174 337 hhcurveto
          126 97 18 37 68 hvcurveto
          323 vlineto
          -37 -81 -88 -18 -97 hhcurveto
          -151 -87 55 109 -22 hvcurveto
          264 205 -287 -1 hlineto
          -2 44 rlineto
          14 vlineto
          2 29 rlineto
          353 205 -338 hlineto
          119 16 78 77 149 hhcurveto
          73 76 -17 -34 81 hvcurveto
          119 299 rlineto
          51 -113 -116 25 -120 hhcurveto
          -336 -222 -180 -340 -68 hvcurveto
          endchar
        </CharString>
        <CharString name="F">
          -185 549 317 279 317 hstem
          158 29 callsubr
          1022 1145 rmoveto
          317 -864 -31 callgsubr
          389 549 437 317 -437 279 vlineto
          endchar
        </CharString>
        <CharString name="G">
          227 -20 325 246 305 303 324 hstem
          104 408 494 370 vstem
          1376 856 rmoveto
          -631 -305 261 -229 hlineto
          -11 -49 -54 -6 -59 hhcurveto
          -215 -117 147 273 279 131 155 231 125 117 -26 -52 105 hvcurveto
          125 310 rlineto
          53 -121 -169 39 -184 hhcurveto
          -243 -188 -66 -131 -135 hvcurveto
          -135 -131 -67 -185 -235 vvcurveto
          -242 61 -186 123 -131 vhcurveto
          -131 123 175 -65 225 hhcurveto
          205 189 29 59 171 hvcurveto
          endchar
        </CharString>
        <CharString name="H">
          280 596 324 542 -20 hstem
          158 397 459 397 vstem
          1411 hmoveto
          -52 callgsubr
          -397 -542 -459 542 -397 -31 callgsubr
          397 596 459 -596 vlineto
          endchar
        </CharString>
        <CharString name="I">
          -8 callgsubr
          21 callgsubr
          555 hmoveto
          -52 callgsubr
          -397 -31 callgsubr
          vlineto
          endchar
        </CharString>
        <CharString name="Iacute">
          -2 callsubr
          703 -93 callsubr
          -545 -1892 -32 callsubr
        </CharString>
        <CharString name="Icircumflex">
          -8 callgsubr
          143 29 21 callgsubr
          161 -94 callsubr
          -396 -1913 -32 callsubr
        </CharString>
        <CharString name="Idieresis">
          -8 callgsubr
          159 13 callgsubr
          -55 342 -129 397 -131 20 callsubr
          115 -97 callsubr
          hintmask 11010000
          -438 -1915 -32 callsubr
        </CharString>
        <CharString name="Igrave">
          -2 callsubr
          11 -89 callsubr
          -283 -1913 -32 callsubr
        </CharString>
        <CharString name="J">
          -568 -459 307 1614 -20 hstem
          166 397 vstem
          563 12 callgsubr
          -397 -1353 hlineto
          -95 -14 -68 -28 -38 vhcurveto
          -40 -29 -46 -20 -65 hhcurveto
          -56 -47 13 8 -43 hvcurveto
          -307 vlineto
          -14 66 67 -7 72 hhcurveto
          347 173 206 396 hvcurveto
          endchar
        </CharString>
        <CharString name="K">
          118 1462 -20 21 callgsubr
          954 807 rmoveto
          461 655 rlineto
          -433 hlineto
          -306 -448 -61 -85 -40 -63 -20 -39 rlinecurve
          635 -397 -31 callgsubr
          397 489 vlineto
          117 70 289 -559 rlineto
          446 hlineto
          endchar
        </CharString>
        <CharString name="L">
          -97 0 319 1143 -20 -25 callgsubr
          vstem
          553 319 rmoveto
          1143 -395 -31 callgsubr
          958 319 vlineto
          endchar
        </CharString>
        <CharString name="M">
          691 0 424 629 409 0 -20 hstemhm
          158 350 952 363 hintmask 10111000
          1823 hmoveto
          -52 callgsubr
          -527 vlineto
          -300 -1038 rlineto
          -8 hlineto
          -304 1038 rlineto
          -526 -31 callgsubr
          350 635 hlineto
          hintmask 11011000
          99 -7 140 -14 179 vhcurveto
          9 hlineto
          299 -1053 rlineto
          376 hlineto
          295 1051 rlineto
          9 hlineto
          -8 -159 -5 -99 -1 -41 rrcurveto
          -1 -41 0 -37 -33 vvcurveto
          -641 vlineto
          endchar
        </CharString>
        <CharString name="N">
          419 0 446 584 432 0 -20 25 callsubr
          hintmask 10111000
          1550 hmoveto
          -52 callgsubr
          -352 -661 vlineto
          -24 callgsubr
          hintmask 11011000
          17 callgsubr
          534 -1030 rlineto
          endchar
        </CharString>
        <CharString name="NULL">
          endchar
        </CharString>
        <CharString name="Ntilde">
          419 1030 432 0 -20 141 244 22 callgsubr
          25 callsubr
          hintmask 01101100
          1093 -9 callgsubr
          hintmask 01011100
          -60 callgsubr
          hintmask 01101100
          -43 callgsubr
          -57 callgsubr
          -243 -1925 rmoveto
          518 -52 callgsubr
          -352 -661 hlineto
          -24 callgsubr
          hintmask 10101100
          17 callgsubr
          endchar
        </CharString>
        <CharString name="O">
          -58 callsubr
          -40 callgsubr
          817 1485 -105 callgsubr
        </CharString>
        <CharString name="OE">
          671 -20 329 -309 -55 callsubr
          -301 324 hstemhm
          104 416 473 396 hintmask 01110110
          1862 hmoveto
          -26 callsubr
          436 317 -436 230 473 317 -836 vlineto
          hintmask 10101110
          12 -40 -121 11 -89 hhcurveto
          -429 -243 -271 -479 -473 245 -282 425 hvcurveto
          hintmask 01110110
          76 123 9 11 45 hvcurveto
          hintmask 10101110
          -25 352 rmoveto
          -29 -51 -72 -14 -94 hhcurveto
          -169 -87 151 273 279 91 149 167 84 86 -18 -31 45 hvcurveto
          endchar
        </CharString>
        <CharString name="Oacute">
          -58 callsubr
          407 21 -40 callgsubr
          1162 -93 callsubr
          -345 -407 -105 callgsubr
        </CharString>
        <CharString name="Ocircumflex">
          -58 callsubr
          100 29 -40 callgsubr
          621 -94 callsubr
          -197 -428 -105 callgsubr
        </CharString>
        <CharString name="Odieresis">
          -58 callsubr
          116 13 callgsubr
          104 416 -116 -39 callgsubr
          -118 416 37 callgsubr
          574 -97 callsubr
          hintmask 11110010
          -238 -430 -105 callgsubr
        </CharString>
        <CharString name="Ograve">
          -58 callsubr
          407 21 -40 callgsubr
          470 -89 callsubr
          -83 -428 -105 callgsubr
        </CharString>
        <CharString name="Oslash">
          343 -20 329 824 -20 48 324 -176 -20 hstemhm
          -43 callsubr
          hintmask 10101100
          1413 1434 rmoveto
          -190 114 -76 -118 rlineto
          37 -93 -110 18 -127 hhcurveto
          -464 -249 -263 -487 -267 70 -198 141 -129 hvcurveto
          -84 -125 193 -125 84 132 rlineto
          -29 87 102 -14 118 hhcurveto
          465 246 261 492 hvcurveto
          hintmask 10011100
          258 -65 192 -130 126 vhcurveto
          -782 -815 rmoveto
          -19 56 -10 80 103 vvcurveto
          hintmask 10101100
          285 99 143 198 vhcurveto
          hintmask 11101100
          45 45 -9 -19 45 hvcurveto
          140 -189 rmoveto
          12 -57 6 -71 -83 vvcurveto
          -291 -95 -133 -200 -42 -39 5 10 -36 vhcurveto
          endchar
        </CharString>
        <CharString name="Otilde">
          -58 callsubr
          98 244 22 callgsubr
          hstemhm
          -43 callsubr
          hintmask 11101100
          1055 -9 callgsubr
          hintmask 11011100
          -60 callgsubr
          hintmask 11101100
          -43 callgsubr
          -57 callgsubr
          -420 -440 -105 callgsubr
        </CharString>
        <CharString name="P">
          5 485 322 336 319 -25 callgsubr
          266 400 vstem
          -19 callgsubr
          395 485 111 vlineto
          177 136 44 89 97 hvcurveto
          97 89 48 127 162 vvcurveto
          298 -186 168 -369 vhcurveto
          14 callgsubr
          -100 -116 28 callsubr
        </CharString>
        <CharString name="Q">
          -58 callsubr
          -40 callgsubr
          816 -21 rmoveto
          -1 vlineto
          1 -1 258 -325 rlineto
          492 hlineto
          -357 411 rlineto
          211 115 105 224 331 vvcurveto
          -51 callsubr
          -57 callsubr
          vhcurveto
          -91 callsubr
          2 1181 rmoveto
          -91 callgsubr
        </CharString>
        <CharString name="R">
          97 532 297 334 299 -25 callgsubr
          281 399 vstem
          -19 callgsubr
          395 532 100 vlineto
          310 -532 rlineto
          448 hlineto
          -427 637 rlineto
          166 93 83 131 169 vvcurveto
          288 -199 144 -397 vhcurveto
          -84 -299 rmoveto
          78 hlineto
          135 68 -50 -101 -122 -69 -61 -138 hvcurveto
          -74 hlineto
          endchar
        </CharString>
        <CharString name="S">
          34 callgsubr
          hstemhm
          90 1024 -1015 393 227 395 hintmask 11100000
          90 72 rmoveto
          71 -34 69 -24 66 -14 rrcurveto
          -13 66 82 -7 97 hhcurveto
          hintmask 11011000
          350 -4 227 197 -4 271 rrcurveto
          99 -25 81 -49 65 vhcurveto
          -50 65 -86 61 -126 57 -131 60 -81 40 -30 23 rrcurveto
          -29 24 10 callgsubr
          136 vhcurveto
          122 11 callgsubr
          -171 -135 -38 -75 -98 hvcurveto
          -98 -75 -50 -105 -135 vvcurveto
          -144 46 -102 95 -81 vhcurveto
          48 -41 72 -42 95 -43 105 -47 65 -32 24 -15 25 -15 17 -16 11 -15 rrcurveto
          11 -15 6 -17 -20 vvcurveto
          -64 -53 -45 -117 -68 -75 11 21 -81 vhcurveto
          -81 22 -79 30 -75 39 rrcurveto
          endchar
        </CharString>
        <CharString name="Scaron">
          34 callgsubr
          395 29 hstem
          100 392 227 395 vstem
          1085 1907 -90 callgsubr
          -995 -1806 rmoveto
          -68 143 113 -24 195 hhcurveto
          117 101 20 39 87 hvcurveto
          173 78 95 146 181 vvcurveto
          197 -84 118 -252 113 vhcurveto
          -131 60 -81 41 -29 23 rrcurveto
          -30 23 10 callgsubr
          137 vhcurveto
          121 11 callgsubr
          -343 -208 -159 -269 -72 12 -62 23 -53 hvcurveto
          46 -105 83 -74 191 -87 105 -47 65 -32 25 -15 rrcurveto
          48 -31 21 -27 -40 vvcurveto
          -64 -53 -45 -117 -136 -172 46 77 -151 vhcurveto
          endchar
        </CharString>
        <CharString name="T">
          -79 23 callsubr
          323 hstem
          408 395 vstem
          1159 23 callsubr
          rmoveto
          323 -1108 -323 357 -1139 395 23 callsubr
          vlineto
          endchar
        </CharString>
        <CharString name="Thorn">
          -5 272 322 336 319 213 -20 -25 callgsubr
          266 400 vstem
          553 1249 rmoveto
          213 -395 -31 callgsubr
          395 272 111 vlineto
          355 200 185 327 297 -186 168 -369 hvcurveto
          14 callgsubr
          -99 -117 28 callsubr
        </CharString>
        <CharString name="U">
          -40 callsubr
          -27 callgsubr
          1401 1462 -98 callgsubr
        </CharString>
        <CharString name="Uacute">
          -40 callsubr
          450 21 -27 callgsubr
          1121 -93 callsubr
          280 -430 -98 callgsubr
        </CharString>
        <CharString name="Ucircumflex">
          -40 callsubr
          143 29 -27 callgsubr
          580 -94 callsubr
          428 -451 -98 callgsubr
        </CharString>
        <CharString name="Udieresis">
          -40 callsubr
          159 13 callgsubr
          150 397 -184 -39 callgsubr
          -181 395 37 callgsubr
          533 -97 callsubr
          hintmask 11110010
          387 -453 -98 callgsubr
        </CharString>
        <CharString name="Ugrave">
          -40 callsubr
          450 21 -27 callgsubr
          429 -89 callsubr
          542 -451 -98 callgsubr
        </CharString>
        <CharString name="V">
          132 -14 callsubr
          0 1421 vstem
          942 hmoveto
          479 -52 callgsubr
          rlineto
          -443 hlineto
          -202 -745 -11 -40 -12 -55 -14 -70 rlinecurve
          -14 -70 -9 -58 -5 -47 -4 65 -23 114 -41 165 -199 741 rcurveline
          -444 hlineto
          477 -31 callgsubr
          rlineto
          endchar
        </CharString>
        <CharString name="W">
          839 -14 callsubr
          31 2066 vstem
          1737 hmoveto
          360 -52 callgsubr
          rlineto
          -381 hlineto
          -162 -735 -39 -183 -23 -128 -9 -74 rlinecurve
          -7 57 -15 87 -22 116 -22 116 -22 102 -21 89 -125 553 rcurveline
          -366 hlineto
          -129 -553 -19 -77 -21 -96 -23 -117 rlinecurve
          -22 -117 -15 -92 -9 -68 -13 96 -25 129 -36 162 -159 733 rcurveline
          -381 hlineto
          362 -31 callgsubr
          rlineto
          467 hlineto
          85 383 48 219 12 54 12 54 12 59 12 64 12 65 9 54 5 42 7 -52 10 -67 14 -79 15 -79 10 -53 7 -27 140 -637 rcurveline
          endchar
        </CharString>
        <CharString name="X">
          192 -14 callsubr
          4 1471 vstem
          976 717 rmoveto
          464 745 rlineto
          -452 hlineto
          -253 -452 -264 452 rlineto
          -438 hlineto
          456 -714 -485 -748 rlineto
          447 hlineto
          282 457 285 -457 rlineto
          457 hlineto
          endchar
        </CharString>
        <CharString name="Y">
          71 -14 callsubr
          481 398 vstem
          879 571 rmoveto
          -65 callgsubr
          398 vlineto
          endchar
        </CharString>
        <CharString name="Yacute">
          71 -34 callsubr
          450 21 hstem
          481 398 vstem
          1026 -93 callsubr
          -147 -1892 -49 callsubr
        </CharString>
        <CharString name="Ydieresis">
          71 -34 callsubr
          159 13 callgsubr
          268 342 -129 398 -132 20 callsubr
          438 -97 callsubr
          hintmask 11010000
          -40 -1915 -49 callsubr
        </CharString>
        <CharString name="Z">
          32 callgsubr
          hstem
          61 23 callsubr
          vstem
          1184 1219 -32 callgsubr
        </CharString>
        <CharString name="Zcaron">
          32 callgsubr
          416 29 hstem
          61 23 callsubr
          vstem
          1091 1907 -90 callgsubr
          93 -659 -32 callgsubr
        </CharString>
        <CharString name="a">
          -70 callgsubr
          -18 callgsubr
          301 793 -106 callgsubr
        </CharString>
        <CharString name="aacute">
          -22 callsubr
          984 -92 callgsubr
          -683 -755 -106 callgsubr
        </CharString>
        <CharString name="acircumflex">
          -70 callgsubr
          88 29 -18 callgsubr
          443 -93 callgsubr
          -535 -776 -106 callgsubr
        </CharString>
        <CharString name="acute">
          14 callsubr
          956 -92 callgsubr
          endchar
        </CharString>
        <CharString name="adieresis">
          -70 callgsubr
          104 13 callgsubr
          74 399 -247 -39 callgsubr
          -294 389 hintmask 00000000
          hintmask 01110110
          396 -87 callgsubr
          -576 -778 -51 callgsubr
          hintmask 11111001
          -107 callgsubr
        </CharString>
        <CharString name="ae">
          626 -20 278 203 246 -203 214 159 276 -266 266 hstemhm
          74 399 281 385 -383 377 346 350 hintmask 0101010110000000
          305 797 rmoveto
          53 117 104 27 92 hhcurveto
          hintmask 1011011010000000
          91 45 -46 -92 hvcurveto
          -18 vlineto
          -183 -6 rlineto
          -331 -12 -166 -121 -230 vvcurveto
          -225 144 -147 216 80 66 5 11 51 vhcurveto
          103 21 70 42 107 111 rrcurveto
          -127 100 143 -63 187 hhcurveto
          171 120 19 64 125 hvcurveto
          281 vlineto
          27 callsubr
          hintmask 1100110110000000
          9 callgsubr
          329 -187 191 -305 -155 -104 -29 -65 -93 vhcurveto
          hintmask 0101010110000000
          63 -90 -112 31 -134 hhcurveto
          -176 -151 -33 -67 -127 hvcurveto
          hintmask 0100111010000000
          944 -346 -4 callsubr
          hintmask 1011010110000000
          -723 -201 rmoveto
          -88 vlineto
          -96 -78 -66 -92 -75 -38 33 67 97 58 44 141 5 vhcurveto
          endchar
        </CharString>
        <CharString name="agrave">
          -22 callsubr
          292 -88 callgsubr
          -421 -776 -106 callgsubr
        </CharString>
        <CharString name="alefdageshhb">
          89 75 173 1047 -20 hstem
          40 callgsubr
          41 189 137 -94 callgsubr
          -620 -576 -104 callgsubr
        </CharString>
        <CharString name="alefpatahhb">
          89 -242 116 1421 -20 hstemhm
          40 callgsubr
          -10 393 -16 388 hintmask 11101000
          -100 callsubr
          hintmask 11010000
          -372 -1066 20 callgsubr
        </CharString>
        <CharString name="alefqamatshb">
          89 -243 117 1421 -20 hstem
          40 callgsubr
          131 111 125 -94 callgsubr
          -377 -1067 -10 callsubr
        </CharString>
        <CharString name="ampersand">
          347 -20 311 934 256 hstemhm
          72 403 -262 352 205 352 hintmask 11101000
          1141 hmoveto
          506 hlineto
          -320 307 54 66 48 79 43 92 rlinecurve
          43 93 32 92 20 92 rrcurveto
          -406 hlineto
          -19 -97 -35 -86 -50 -77 -199 189 rcurveline
          183 111 81 123 149 vvcurveto
          107 -39 85 -79 62 vhcurveto
          63 -78 -109 31 -141 hhcurveto
          -144 -113 -31 -63 -83 hvcurveto
          hintmask 11011000
          -82 -63 -41 -84 -107 vvcurveto
          -132 48 -101 83 -93 vhcurveto
          hintmask 11101000
          -181 -93 -91 -133 -175 vvcurveto
          -6 -247 219 -183 317 4 rrcurveto
          123 93 15 28 76 hvcurveto
          39 15 48 26 61 38 rrcurveto
          hintmask 11011000
          -372 1123 rmoveto
          57 43 -27 -65 -63 -41 -62 -76 -43 hvcurveto
          -59 53 -29 52 50 vvcurveto
          73 49 32 56 vhcurveto
          135 -885 rmoveto
          -25 -31 -59 -24 -76 hhcurveto
          hintmask 11101000
          -99 -65 59 84 65 27 52 55 41 hvcurveto
          endchar
        </CharString>
        <CharString name="aring">
          -70 callgsubr
          84 168 168 170 hstemhm
          74 399 -180 21 callsubr
          -73 389 hintmask 0000000000000000
          hintmask 0111101100000000
          -67 callgsubr
          -256 -780 -51 callgsubr
          hintmask 1111110010000000
          -107 callgsubr
        </CharString>
        <CharString name="asciicircum">
          -214 1468 -20 hstem
          -16 1118 vstem
          1102 502 rmoveto
          -508 966 rlineto
          -170 hlineto
          -440 -966 rlineto
          286 hlineto
          124 286 124 291 289 -577 rlineto
          endchar
        </CharString>
        <CharString name="asciitilde">
          -130 528 269 -150 268 hstemhm
          72 1013 hintmask 01100000
          1085 918 rmoveto
          hintmask 10100000
          -76 -75 -89 -45 -67 hhcurveto
          -71 -80 18 37 -87 hvcurveto
          hintmask 01100000
          -59 24 -50 16 -41 9 rrcurveto
          9 -41 -43 5 -46 hhcurveto
          -107 -88 -36 -72 -69 hvcurveto
          -281 vlineto
          81 82 78 40 73 hhcurveto
          70 79 -18 -37 87 hvcurveto
          hintmask 10100000
          56 -23 49 -16 41 -10 rrcurveto
          -10 42 45 -5 47 hhcurveto
          106 88 36 73 70 hvcurveto
          endchar
        </CharString>
        <CharString name="asterisk">
          -189 1305 -20 hstem
          45 1012 vstem
          664 1204 rmoveto
          38 352 rlineto
          -303 hlineto
          39 -352 -348 101 -45 -291 313 -26 -206 -277 272 -136 123 281 143 -283 260 138 -207 277 314 22 -37 295 rlineto
          endchar
        </CharString>
        <CharString name="at">
          548 -154 228 159 218 444 219 143 224 hstem
          82 272 125 281 298 279.5 153.5 264 vstem
          1413 170 rmoveto
          -61 -172 -187 -35 -155 hhcurveto
          -173 -135 46 92 -95 hvcurveto
          -95 93 -47 131 170 vvcurveto
          -4 395 243 260 379 -4 rrcurveto
          166 128 -43 -87 90 hvcurveto
          90 -87 45 -123 -159 vvcurveto
          -89 -11 -73 -22 -58 vhcurveto
          -58 -21 -28 -29 -35 hhcurveto
          -33 -16 29 57 hvcurveto
          2 94 21 422 -54 19 -60 14 -65 11 rlinecurve
          11 -65 -59 6 -55 hhcurveto
          -308 4 -208 -197 5 -282 rrcurveto
          -256 135 -150 244 102 87 40 79 71 vhcurveto
          15 hlineto
          -75 48 90 -44 105 hhcurveto
          147 119 97 163 64 hvcurveto
          33 81 16 88 94 vvcurveto
          291 -133 226 -240 119 vhcurveto
          59 -119 -138 30 -157 hhcurveto
          -169 -152 -36 -73 -135 hvcurveto
          -134 -72 -105 -103 -77 -134 rrcurveto
          -76 -133 -38 -151 -169 vvcurveto
          -239 74 -188 147 -135 vhcurveto
          -135 148 203 -67 259 hhcurveto
          184 167 32 63 149 hvcurveto
          -360 792 rmoveto
          -7 -105 -16 -74 -24 -41 rrcurveto
          -41 -25 -37 -21 -51 hhcurveto
          -80 -53 57 133 160 91 94 143 20 22 -2 -4 27 hvcurveto
          endchar
        </CharString>
        <CharString name="atilde">
          -70 callgsubr
          86 -36 callsubr
          74 399 283 389 hintmask 00000000
          hintmask 01101011
          877 39 callsubr
          hintmask 01110011
          -36 callgsubr
          hintmask 01100111
          -85 callsubr
          hintmask 01110011
          -43 callgsubr
          hintmask 11101011
          -57 callgsubr
          -758 -788 -106 callgsubr
        </CharString>
        <CharString name="b">
          -31 callsubr
          -1556 305 hlineto
          62 111 rlineto
          24 hlineto
          34 -37 30 -27 25 -16 26 -16 29 -12 33 -9 rrcurveto
          -9 33 37 -5 42 hhcurveto
          130 101 52 104 73 hvcurveto
          73 105 37 144 184 vvcurveto
          183 -36 143 -73 102 vhcurveto
          104 -72 -98 52 -123 hhcurveto
          -127 -98 -49 -118 -76 hvcurveto
          -14 hlineto
          9 104 5 72 42 vvcurveto
          -594 vmoveto
          163 49 73 109 98 49 -91 -182 -183 -51 -95 -92 -115 -47 75 185 vhcurveto
          endchar
        </CharString>
        <CharString name="backslash">
          -384 1483 -20 hstem
          6 891 vstem
          897 -20 rmoveto
          -545 1503 rlineto
          -346 hlineto
          545 -1503 rlineto
          endchar
        </CharString>
        <CharString name="bar">
          0 callgsubr
          -446 rmoveto
          2002 -268 -2002 vlineto
          endchar
        </CharString>
        <CharString name="betdageshhb">
          -93 11 callsubr
          255 16 callgsubr
          286 189 164 -63 callsubr
          298 -529 -104 callgsubr
        </CharString>
        <CharString name="braceleft">
          -7 callsubr
          61 330 -84 324 hintmask 11010100
          821 7 callsubr
          -260 -140 -40 -92 -65 hvcurveto
          -33 -46 -16 -69 -93 vvcurveto
          -254 vlineto
          -108 -93 -62 -153 vhcurveto
          hintmask 11011000
          -301 vlineto
          hintmask 11010100
          149 97 -63 -107 hvcurveto
          -248 vlineto
          -93 16 -71 32 -46 vhcurveto
          33 -47 53 -34 73 -21 rrcurveto
          -21 73 103 -11 131 hhcurveto
          278 vlineto
          -52 2 -38 5 -23 7 -23 7 -19 10 -14 15 rrcurveto
          -14 15 -7 20 26 vvcurveto
          276 vlineto
          144 -69 75 -171 27 vhcurveto
          hintmask 11011000
          12 vlineto
          hintmask 11100100
          169 24 71 77 151 vvcurveto
          271 vlineto
          51 28 28 41 13 vhcurveto
          21 7 41 5 59 2 rrcurveto
          endchar
        </CharString>
        <CharString name="braceright">
          -7 callsubr
          256 324 -84 329 hintmask 00000000
          hintmask 11101000
          66 1204 rmoveto
          60 -2 40 -5 20 -7 21 -7 16 -10 13 -15 rrcurveto
          13 -14 7 -20 -26 vvcurveto
          -271 vlineto
          -151 71 -77 169 -24 vhcurveto
          hintmask 11010100
          -12 vlineto
          hintmask 11011000
          -171 -27 -69 -75 -144 vvcurveto
          -276 vlineto
          -69 -46 -33 -144 -5 vhcurveto
          -278 vlineto
          261 139 41 93 65 hvcurveto
          33 47 16 71 92 vvcurveto
          248 vlineto
          107 97 63 148 vhcurveto
          hintmask 11010100
          301 vlineto
          hintmask 11011000
          -153 -92 62 30 callgsubr
          254 vlineto
          93 -16 69 -33 46 vhcurveto
          -33 46 -53 33 -73 21 rrcurveto
          21 -73 -102 11 -131 hhcurveto
          endchar
        </CharString>
        <CharString name="bracketleft">
          10 callsubr
          117 317 vstem
          616 1249 rmoveto
          254 -499 -1847 499 254 -182 1339 vlineto
          endchar
        </CharString>
        <CharString name="bracketright">
          10 callsubr
          229 318 vstem
          547 -344 rmoveto
          1847 -500 -254 182 -1339 -182 -254 vlineto
          endchar
        </CharString>
        <CharString name="breve">
          -64 1241 240 -240 371 hstemhm
          209 809 hintmask 00000000
          hintmask 01100000
          799 1612 rmoveto
          hintmask 10100000
          -91 -25 -56 -40 -108 hhcurveto
          hintmask 01100000
          -127 -36 27 104 -27 hvcurveto
          -211 hlineto
          hintmask 10100000
          -241 12 140 -130 249 hhcurveto
          hintmask 01100000
          243 152 143 228 13 hvcurveto
          endchar
        </CharString>
        <CharString name="brokenbar">
          0 callgsubr
          717 31 callgsubr
          268 -1163 31 callgsubr
          endchar
        </CharString>
        <CharString name="bullet">
          -486 387 721 hstem
          74 655 vstem
          401 1108 rmoveto
          -211 -116 -129 -231 -233 120 -128 207 205 123 132 229 227 -117 133 -211 hvcurveto
          endchar
        </CharString>
        <CharString name="c">
          -185 -20 311 555 307 hstem
          30 callsubr
          vstem
          1014 391 rmoveto
          2 callgsubr
          -10 callgsubr
          115 289 rlineto
          -25 callsubr
          -375 194 -206 371 141 121 33 67 101 vhcurveto
          endchar
        </CharString>
        <CharString name="caron">
          -52 1540 29 hstem
          164 907 vstem
          1071 -81 callsubr
          endchar
        </CharString>
        <CharString name="ccedilla">
          -185 -492 207 265 311 555 307 hstemhm
          30 callsubr
          25 288 hintmask 11110000
          1053 1067 rmoveto
          -25 callsubr
          -307 130 -194 251 -60 vhcurveto
          -35 38 callsubr
          hintmask 11111000
          -81 callgsubr
          3 9 rlineto
          22 hlineto
          141 121 33 67 101 hvcurveto
          311 vlineto
          2 callgsubr
          hintmask 11110000
          -10 callgsubr
          endchar
        </CharString>
        <CharString name="cedilla">
          -906 -492 207 256 29 hstemhm
          -90 487 -288 288 hintmask 01100000
          236 hmoveto
          -203 38 callsubr
          hintmask 11010000
          -81 callgsubr
          endchar
        </CharString>
        <CharString name="cent">
          -89 -20 489 555 459 -166 -20 186 -20 hstemhm
          129 397 39 207 hintmask 10111100
          772 7 callsubr
          -207 -166 hlineto
          -280 -55 -156 -203 -320 vvcurveto
          -336 153 -196 283 -41 vhcurveto
          -186 207 180 vlineto
          105 11 94 32 86 55 rrcurveto
          311 vlineto
          2 callgsubr
          -134 -67 91 181 hvcurveto
          hintmask 11001100
          4 callgsubr
          -28 -40 94 vhcurveto
          116 289 -103 50 -107 28 -114 6 rlinecurve
          endchar
        </CharString>
        <CharString name="circumflex">
          -52 1241 29 hstem
          164 907 vstem
          422 -93 callgsubr
          endchar
        </CharString>
        <CharString name="colon">
          -697 -25 383 406 383 hstem
          86 5 callsubr
          1147 rmoveto
          -137 -76 -70 -121 -120 77 -72 136 129 76 72 120 121 -73 70 -132 hvcurveto
          -789 vmoveto
          -84 callgsubr
          endchar
        </CharString>
        <CharString name="comma">
          -62 callsubr
        </CharString>
        <CharString name="copyright">
          399 -20 163 119 227 481 228 -78 -20 219 164 hstemhm
          92 164 178 281 717 163 hintmask 11011111
          -95 callsubr
          307 -762 rmoveto
          -45 -80 -87 -23 -91 hhcurveto
          -121 -57 71 171 hvcurveto
          hintmask 11101111
          157 64 82 108 70 70 -18 -37 71 vhcurveto
          hintmask 11011111
          92 205 rlineto
          hintmask 11101111
          52 -104 -108 26 -110 hhcurveto
          -139 -107 -41 -82 -75 hvcurveto
          -75 -83 -38 -112 -145 vvcurveto
          -150 39 -116 77 -83 vhcurveto
          -83 78 110 -41 141 hhcurveto
          96 92 21 43 84 hvcurveto
          endchar
        </CharString>
        <CharString name="d">
          28 -20 309 549 315 hstem
          86 395 307 394 vstem
          1182 hmoveto
          12 callsubr
          -394 -303 vlineto
          -89 6 -88 13 -90 vhcurveto
          -8 hlineto
          121 -79 -91 46 -127 hhcurveto
          -129 -102 -52 -105 -74 hvcurveto
          -74 -103 -37 -144 -184 vvcurveto
          -2 -360 162 -231 241 6 rrcurveto
          133 101 54 109 67 hvcurveto
          15 hlineto
          84 -143 rlineto
          -66 530 rmoveto
          -164 -4 -45 -77 -125 hhcurveto
          -107 -59 94 176 179 59 100 103 123 55 -77 -200 hvcurveto
          endchar
        </CharString>
        <CharString name="dagger">
          -238 23 callsubr
          -20 hstem
          111 829 vstem
          621 23 callsubr
          rmoveto
          59 417 rlineto
          -330 hlineto
          60 -417 -299 30 rlineto
          -286 vlineto
          299 30 -60 -913 rlineto
          330 hlineto
          -59 913 319 -30 rlineto
          286 vlineto
          endchar
        </CharString>
        <CharString name="daggerdbl">
          -216 0 12 callsubr
          hstem
          111 852 vstem
          643 1182 rmoveto
          59 374 rlineto
          -327 hlineto
          59 -374 -323 30 rlineto
          -286 vlineto
          323 30 -51 -170 51 -186 -323 31 rlineto
          -287 vlineto
          323 31 -59 -375 rlineto
          327 hlineto
          -59 375 320 -31 rlineto
          287 vlineto
          -320 -31 49 186 -49 170 320 -30 rlineto
          286 vlineto
          endchar
        </CharString>
        <CharString name="daletdageshhb">
          -154 -14 callgsubr
          -274 274 hstemhm
          182 189 180 388 hintmask 01001000
          -30 callsubr
          hintmask 10111000
          32 callsubr
          -832 -261 -104 callgsubr
        </CharString>
        <CharString name="degree">
          -425 750 236 261 236 hstem
          63 238 262 238 vstem
          432 7 callsubr
          -198 5 -177 -181 6 -193 -6 -195 177 -174 198 5 202 -5 172 176 -5 193 6 194 -177 179 -198 -4 rrcurveto
          -236 vmoveto
          37 31 -14 -27 25 hvcurveto
          25 -27 13 -30 -35 vvcurveto
          -33 -13 -29 -26 -26 vhcurveto
          -27 -25 -31 -13 -36 hhcurveto
          -36 -31 13 26 -26 hvcurveto
          -25 26 -13 30 33 vvcurveto
          35 12 30 25 27 vhcurveto
          27 25 32 14 37 hhcurveto
          endchar
        </CharString>
        <CharString name="dieresis">
          -56 1257 314 hstem
          223 -39 callgsubr
          vstem
          393 -87 callgsubr
          endchar
        </CharString>
        <CharString name="divide">
          -130 162 340 86 268 86 340 hstem
          422 313 vstem
          578 1282 -16 callgsubr
          507 -694 rmoveto
          268 -1013 -268 vlineto
          506 -86 -16 callgsubr
          endchar
        </CharString>
        <CharString name="dollar">
          -89 -119 479 770 424 -233 -20 hstemhm
          80 391 33 207 26 5 callgsubr
          hintmask 11011000
          711 1554 rmoveto
          -207 -137 hlineto
          -283 -29 -141 -124 -220 vvcurveto
          -144 45 -89 104 -79 vhcurveto
          52 -39 68 -35 85 -31 rrcurveto
          hintmask 10101100
          228 -86 74 -27 1 -65 rrcurveto
          -64 -51 -25 -113 -69 -79 13 26 -91 vhcurveto
          -91 27 -84 33 -77 39 rrcurveto
          -332 vlineto
          hintmask 10101000
          135 -59 141 -32 146 -7 rrcurveto
          -187 207 193 vlineto
          hintmask 11011100
          271 33 146 146 224 vvcurveto
          99 -30 81 -61 63 vhcurveto
          -62 63 -99 57 -139 49 -208 75 -56 24 -2 65 rrcurveto
          51 38 26 107 112 126 -31 -63 138 vhcurveto
          hintmask 10101100
          120 285 rlineto
          hintmask 10101000
          -136 58 -132 33 -133 7 rrcurveto
          endchar
        </CharString>
        <CharString name="dotaccent">
          -623 1243 346 hstem
          127 416 vstem
          334 -68 callsubr
          endchar
        </CharString>
        <CharString name="dotlessi">
          -29 callgsubr
        </CharString>
        <CharString name="dotlessi.001">
          -29 callgsubr
        </CharString>
        <CharString name="e">
          -55 callgsubr
          -19 callsubr
          1106 344 -102 callsubr
        </CharString>
        <CharString name="eacute">
          -22 callgsubr
          979 -92 callgsubr
          127 -1204 -102 callsubr
        </CharString>
        <CharString name="ecircumflex">
          -55 callgsubr
          88 29 -19 callsubr
          438 -93 callgsubr
          275 -1225 -102 callsubr
        </CharString>
        <CharString name="edieresis">
          -55 callgsubr
          104 13 callgsubr
          86 395 -260 -39 callgsubr
          -220 355 hintmask 11010110
          391 -87 callgsubr
          234 -1227 -62 callgsubr
          hintmask 11111001
          -103 callgsubr
        </CharString>
        <CharString name="egrave">
          -22 callgsubr
          287 -88 callgsubr
          389 -1225 -102 callsubr
        </CharString>
        <CharString name="eight">
          -89 -20 284 934 285 hstemhm
          68 362 -319 370 240 371 -320 363 hintmask 11101000
          604 7 callsubr
          -154 -121 -31 -63 -87 hvcurveto
          hintmask 11011000
          -87 -62 -44 -87 -112 vvcurveto
          -144 68 -116 155 -104 vhcurveto
          hintmask 11100100
          -96 -49 -68 -54 -41 -60 rrcurveto
          -41 -59 -20 -72 -85 vvcurveto
          -261 188 -144 344 169 131 36 71 93 vhcurveto
          95 71 47 101 130 vvcurveto
          71 -22 65 -45 61 vhcurveto
          -44 61 -76 62 -108 61 rrcurveto
          hintmask 11101000
          175 87 77 113 156 vvcurveto
          114 -43 88 -86 62 vhcurveto
          62 -85 -120 31 -154 hhcurveto
          hintmask 11011000
          -2 -285 rmoveto
          65 54 -42 -64 -29 -9 -25 -17 -23 hvcurveto
          -17 -24 -33 -24 -47 -27 rrcurveto
          -78 43 -39 52 57 vvcurveto
          63 53 43 68 vhcurveto
          hintmask 11100100
          -6 -602 rmoveto
          66 -39 46 -36 25 -32 rrcurveto
          26 -31 13 -32 -33 vvcurveto
          -86 -59 -43 -117 -104 -62 54 83 71 47 61 119 63 vhcurveto
          endchar
        </CharString>
        <CharString name="ellipsis">
          487 -25 383 hstem
          86 418 174 418 174 5 callsubr
          358 rmoveto
          -84 callgsubr
          592 hmoveto
          -84 callgsubr
          592 hmoveto
          -84 callgsubr
          endchar
        </CharString>
        <CharString name="emdash">
          759 414 276 hstem
          74 1896 vstem
          1970 414 rmoveto
          276 -1896 -276 vlineto
          endchar
        </CharString>
        <CharString name="endash">
          -265 414 276 hstem
          74 876 vstem
          950 414 rmoveto
          276 -876 -276 vlineto
          endchar
        </CharString>
        <CharString name="equal">
          -130 358 271 186 268 hstem
          72 1015 vstem
          1087 815 rmoveto
          268 -1015 -268 vlineto
          1015 -457 rmoveto
          271 -1015 -271 vlineto
          endchar
        </CharString>
        <CharString name="eth">
          24 -20 278 475 281 282 -20 22 -20 hstemhm
          88 401 328 400 hintmask 11011100
          1069 1393 rmoveto
          -115 182 -209 -137 -61 41 -89 45 -116 49 rlinecurve
          -108 -182 149 -93 -143 -92 117 -184 182 119 51 -51 47 -69 45 -87 rlinecurve
          -8 -4 rlineto
          56 -35 -81 28 -128 hhcurveto
          -291 -188 -197 -319 -320 216 -198 345 351 217 233 367 hvcurveto
          hintmask 11101100
          291 -81 216 -212 209 vhcurveto
          -271 -563 rmoveto
          99 65 -76 -112 -193 -43 -94 -121 -109 -55 81 161 161 41 72 123 hvcurveto
          endchar
        </CharString>
        <CharString name="exclam">
          -695 -25 383 1104 -20 hstem
          86 418 vstem
          463 516 rmoveto
          51 946 rlineto
          -432 hlineto
          51 -946 rlineto
          164 -158 rmoveto
          -137 -74 -71 -121 -120 79 -71 132 131 76 71 120 121 -71 71 -136 hvcurveto
          endchar
        </CharString>
        <CharString name="exclamdown">
          -695 770 383 hstem
          92 5 callsubr
          1153 rmoveto
          -132 -75 -70 -120 -123 71 -70 136 139 72 72 121 119 -76 71 -135 hvcurveto
          215 -1487 rmoveto
          -51 946 rlineto
          -330 hlineto
          -51 -946 rlineto
          endchar
        </CharString>
        <CharString name="f">
          -443 840 28 callgsubr
          195 5 callgsubr
          hintmask 01010000
          203 1128 rmoveto
          -158 -96 rlineto
          hintmask 10110000
          -192 150 -840 391 840 241 293 -241 30 vlineto
          83 26 34 60 46 47 -7 -13 48 vhcurveto
          84 253 -61 20 -54 14 -47 8 rlinecurve
          8 -46 -49 4 -52 hhcurveto
          -135 -98 -33 -65 -61 hvcurveto
          hintmask 01110000
          -61 -65 -30 -108 -149 vvcurveto
          endchar
        </CharString>
        <CharString name="finalkafdageshhb">
          -181 -2 callgsubr
          253 302 hstem
          186 189 215 -59 callgsubr
          257 -539 -104 callgsubr
        </CharString>
        <CharString name="finalpedageshhb">
          20 781 173 52 309 hstem
          43 392 71 189 91 -73 callgsubr
          119 540 -104 callgsubr
        </CharString>
        <CharString name="five">
          -89 -20 311 362 305 175 329 hstem
          707 399 vstem
          1008 -38 callgsubr
          rmoveto
          329 -834 vlineto
          -55 -772 145 -72 rlineto
          23 72 67 12 62 hhcurveto
          163 79 -66 -112 -121 -81 -63 -147 -53 -63 9 17 -73 hvcurveto
          -73 17 -65 22 -59 27 rrcurveto
          -324 vlineto
          -53 109 139 -26 171 hhcurveto
          399 195 180 327 hvcurveto
          5 279 -195 195 -252 -3 rrcurveto
          -19 -20 -1 -1 -22 hvcurveto
          -22 -1 -37 -5 -52 -10 18 193 rcurveline
          endchar
        </CharString>
        <CharString name="florin">
          -152 -492 312 1020 28 callgsubr
          344 5 callgsubr
          hintmask 00101000
          352 1128 rmoveto
          -157 -96 rlineto
          hintmask 11011000
          -192 149 -877 vlineto
          -95 -31 -48 -63 -33 -37 6 12 -41 vhcurveto
          -301 vlineto
          29 -9 36 -7 43 -5 rrcurveto
          -5 43 36 -3 28 hhcurveto
          243 138 145 263 hvcurveto
          924 255 293 -255 4 vlineto
          103 30 40 71 39 47 -8 -17 52 vhcurveto
          77 258 rlineto
          36 -107 -108 18 -111 hhcurveto
          -133 -95 -32 -63 -58 hvcurveto
          hintmask 00111000
          -58 -63 -29 -102 -142 vvcurveto
          endchar
        </CharString>
        <CharString name="four">
          -89 283 295 884 -20 hstem
          618 390 vstem
          1008 578 rmoveto
          884 -365 vlineto
          -608 -889 rlineto
          -290 583 -283 390 283 161 295 vlineto
          -542 385 rmoveto
          -1 -3 -2 -28 -3 -55 rrcurveto
          -2 -54 -1 -43 -32 vvcurveto
          -170 -241 vlineto
          162 241 29 45 25 48 23 51 rlinecurve
          endchar
        </CharString>
        <CharString name="g">
          -48 -492 244 209 305 101 221 348 197 -197 217 -209 189 0 -20 hstemhm
          20 330 -246 369 238 370 -227 340 hintmask 1110001011000000
          625 266 rmoveto
          -101 -69 21 39 15 5 17 9 17 hvcurveto
          -5 25 33 -3 42 hhcurveto
          340 172 141 244 hvcurveto
          hintmask 1110010011000000
          51 -11 45 -21 39 vhcurveto
          155 57 rlineto
          189 -395 vlineto
          -24 4 -37 4 -51 5 rrcurveto
          hintmask 1110100011000000
          5 -51 -35 2 -21 hhcurveto
          -156 -120 -34 -68 -84 hvcurveto
          -84 -69 -42 -95 -123 vvcurveto
          -159 72 -113 117 -52 vhcurveto
          -61 -37 -41 -33 -19 -27 rrcurveto
          -19 -27 -10 -31 -35 vvcurveto
          -32 13 -32 25 -33 vhcurveto
          26 -33 30 -24 35 -14 rrcurveto
          hintmask 1110001100100000
          -168 -39 -84 -88 -135 vvcurveto
          -201 181 -111 321 213 165 38 77 117 vhcurveto
          118 77 59 107 138 vvcurveto
          214 -127 107 -254 vhcurveto
          hintmask 1111000011000000
          -219 670 rmoveto
          78 39 -59 -117 -115 -42 -57 -75 -81 -40 58 116 116 40 58 81 hvcurveto
          59 -975 rmoveto
          hintmask 1110001100100000
          129 72 -22 -60 -37 -29 -31 -57 -23 hvcurveto
          -24 -57 -75 -12 -95 hhcurveto
          -116 -75 43 64 29 14 24 29 20 hvcurveto
          19 29 36 10 42 hhcurveto
          endchar
        </CharString>
        <CharString name="gereshhb">
          -777 1273 22 hstem
          37 455 vstem
          477 1295 -76 callgsubr
          endchar
        </CharString>
        <CharString name="germandbls">
          247 -20 270 1018 299 38 callgsubr
          412 401 -270 408 hintmask 11110000
          135 hmoveto
          391 1059 hlineto
          139 74 70 148 121 69 -51 -68 -59 -39 -47 -100 -69 vhcurveto
          -93 -64 -47 -73 -81 vvcurveto
          -107 56 -66 168 -89 vhcurveto
          hintmask 11101000
          57 -30 40 -23 24 -15 rrcurveto
          48 -32 17 -21 -37 vvcurveto
          -52 -56 -34 -81 -87 -127 40 40 -65 vhcurveto
          -291 vlineto
          -45 85 105 -14 181 hhcurveto
          297 156 122 232 165 -63 83 -225 127 hvcurveto
          -46 25 -31 19 -16 14 rrcurveto
          -17 14 -8 15 15 vvcurveto
          19 30 23 40 31 vhcurveto
          hintmask 11110000
          39 31 50 38 40 50 rrcurveto
          39 50 30 61 76 vvcurveto
          237 -223 140 -368 -372 -241 -180 -287 vhcurveto
          endchar
        </CharString>
        <CharString name="gershayimhb">
          -267 1273 22 hstem
          37 964 vstem
          477 1295 -69 callgsubr
        </CharString>
        <CharString name="gimeldageshhb">
          -305 -20 348 259 173 249 306 hstem
          186 189 87 -75 callsubr
          100 -523 -104 callgsubr
        </CharString>
        <CharString name="grave">
          14 callsubr
          264 -88 callgsubr
          endchar
        </CharString>
        <CharString name="greater">
          8 callsubr
          799 rmoveto
          -1011 506 rlineto
          -297 vlineto
          620 -283 -620 -252 rlineto
          -295 vlineto
          1011 449 rlineto
          endchar
        </CharString>
        <CharString name="guillemotleft">
          106 41 callgsubr
          74 1245 -41 callsubr
          848 347 rmoveto
          -283 149 -387 -483 rlineto
          -27 vlineto
          387 -481 283 147 -275 348 rlineto
          endchar
        </CharString>
        <CharString name="guillemotright">
          106 41 callgsubr
          76 1245 -42 callsubr
          576 27 rmoveto
          -387 483 -285 -149 275 -347 -275 -348 285 -147 387 481 rlineto
          endchar
        </CharString>
        <CharString name="guilsinglleft">
          -470 41 callgsubr
          74 669 -41 callsubr
          endchar
        </CharString>
        <CharString name="guilsinglright">
          -470 41 callgsubr
          76 669 -42 callsubr
          endchar
        </CharString>
        <CharString name="h">
          83 0 12 callsubr
          -710 307 38 callgsubr
          322 393 hintmask 10110000
          3 callsubr
          -1556 391 498 hlineto
          hintmask 01110000
          125 15 89 30 53 vhcurveto
          54 31 47 27 64 hhcurveto
          90 45 -76 -152 hvcurveto
          -618 393 737 vlineto
          131 -35 101 -71 74 vhcurveto
          73 -70 -98 37 -127 hhcurveto
          -136 -101 -43 -118 -75 hvcurveto
          -18 hlineto
          11 129 5 114 100 vvcurveto
          endchar
        </CharString>
        <CharString name="hedageshhb">
          60 -2 callgsubr
          255 16 callgsubr
          136 387 58 189 60 -56 callsubr
          540 -517 -107 callsubr
          -539 -760 rmoveto
          387 755 -387 hlineto
          endchar
        </CharString>
        <CharString name="hungarumlaut">
          -91 1241 328 hstem
          78 1042 vstem
          655 1569 rmoveto
          -370 hlineto
          -28 -49 -53 -78 -77 -105 -49 -67 rcurveline
          -29 203 vlineto
          191 132 151 123 32 52 rrcurveto
          465 21 rmoveto
          -372 hlineto
          -28 -51 -53 -78 -77 -103 -49 -67 rcurveline
          -29 202 vlineto
          163 109 179 141 35 57 rrcurveto
          endchar
        </CharString>
        <CharString name="hyphen">
          -23 callgsubr
        </CharString>
        <CharString name="i">
          -27 callsubr
          130 346 hstemhm
          127 416 -406 5 callgsubr
          hintmask 11100000
          334 -68 callsubr
          hintmask 11010000
          194 -1589 rmoveto
          -63 callgsubr
        </CharString>
        <CharString name="iacute">
          -27 callsubr
          435 21 -8 callsubr
          799 1569 -75 callgsubr
          -27 -32 -28 -86 callsubr
          96 60 229 162 107 85 rrcurveto
          -271 -1548 rmoveto
          -63 callgsubr
        </CharString>
        <CharString name="icircumflex">
          -27 callsubr
          128 29 -8 callsubr
          138 1569 rmoveto
          -51 -77 -115 -135 -92 -87 -101 callsubr
          -3 -1569 rmoveto
          -63 callgsubr
        </CharString>
        <CharString name="idieresis">
          -27 callsubr
          144 13 callgsubr
          -61 342 -144 391 -110 20 callsubr
          109 1571 -100 callgsubr
          107 66 61 95 96 -66 62 -107 hvcurveto
          hintmask 11010000
          -62 -1571 rmoveto
          -63 callgsubr
        </CharString>
        <CharString name="igrave">
          -27 callsubr
          435 21 -8 callsubr
          -130 1569 rmoveto
          -21 vlineto
          125 -99 215 -149 92 -59 -89 callgsubr
          228 -1569 rmoveto
          -63 callgsubr
        </CharString>
        <CharString name="j">
          -625 3 callgsubr
          130 346 hstemhm
          125 416 -406 5 callgsubr
          hintmask 11110000
          332 -68 callsubr
          hintmask 11101000
          194 -456 rmoveto
          -391 -1142 hlineto
          -114 -41 -57 -78 -37 -40 6 12 -43 vhcurveto
          -305 vlineto
          25 -7 33 -5 42 -5 rrcurveto
          -5 41 37 -3 32 hhcurveto
          134 103 36 71 73 hvcurveto
          73 71 37 97 125 vvcurveto
          endchar
        </CharString>
        <CharString name="k">
          61 -38 callgsubr
          -20 hstem
          135 393 vstem
          528 12 callsubr
          rmoveto
          -393 -1556 393 309 hlineto
          127 97 248 -406 rlineto
          447 hlineto
          -418 651 393 482 rlineto
          -436 hlineto
          -254 -320 -33 -42 -41 -59 -47 -75 rlinecurve
          -8 hlineto
          15 100 7 102 105 vvcurveto
          endchar
        </CharString>
        <CharString name="kafdageshhb">
          -185 -20 312 295 173 253 302 hstem
          258 189 186 -77 callsubr
          286 -539 -104 callgsubr
        </CharString>
        <CharString name="l">
          -627 0 12 callsubr
          hstem
          -12 callgsubr
          vstem
          526 hmoveto
          12 callsubr
          -391 -1556 vlineto
          endchar
        </CharString>
        <CharString name="lameddageshhb">
          -158 -14 callgsubr
          hstemhm
          50 388 -226 189 hintmask 01100000
          1090 -42 callgsubr
          -652 33 callgsubr
          hlineto
          -20 callgsubr
          hintmask 11010000
          -784 -298 -104 callgsubr
        </CharString>
        <CharString name="less">
          8 callsubr
          1008 rmoveto
          297 vlineto
          -1011 -506 rlineto
          -172 vlineto
          1011 -449 rlineto
          295 vlineto
          -620 252 rlineto
          endchar
        </CharString>
        <CharString name="logicalnot">
          -130 588 268 hstem
          815 270 vstem
          1085 238 rmoveto
          618 -1013 -268 743 -350 vlineto
          endchar
        </CharString>
        <CharString name="m">
          759 846 -3 callsubr
          303 392 305 391 hintmask 01111000
          1171 1004 rmoveto
          hintmask 10111000
          99 -66 -116 50 -162 hhcurveto
          -145 -120 -56 -105 -60 hvcurveto
          -23 hlineto
          hintmask 01111000
          -29 callsubr
          hintmask 10111000
          248 53 102 123 89 38 -77 -153 vhcurveto
          -616 392 528 vlineto
          219 54 99 120 91 40 -77 -153 vhcurveto
          -616 391 737 vlineto
          280 -125 136 -268 -137 -121 -56 -93 -64 vhcurveto
          endchar
        </CharString>
        <CharString name="memdageshhb">
          136 11 callsubr
          247 308 -152 132 hstemhm
          619 189 92 395 hintmask 00000000
          hintmask 10010100
          -61 callgsubr
          hintmask 11101100
          -54 callsubr
          209 -403 -104 callgsubr
        </CharString>
        <CharString name="mu">
          87 -20 309 844 -20 hstem
          -12 callgsubr
          322 393 vstem
          1241 hmoveto
          -38 callgsubr
          -393 -496 vlineto
          -243 -52 -105 -124 -105 -41 76 153 vhcurveto
          615 -391 -1625 391 320 vlineto
          97 -4 78 -8 60 vhcurveto
          -57 37 40 -26 75 hhcurveto
          88 80 55 117 45 hvcurveto
          16 hlineto
          53 -152 rlineto
          endchar
        </CharString>
        <CharString name="multiply">
          -130 266 914 hstem
          121 915 vstem
          1036 996 rmoveto
          -188 184 -275 -267 -270 267 -182 -190 266 -267 -264 -268 180 -187 270 269 275 -271 184 185 -270 272 rlineto
          endchar
        </CharString>
        <CharString name="n">
          83 846 -3 callsubr
          324 391 hintmask 01110000
          479 992 rmoveto
          -29 callsubr
          hintmask 10110000
          -64 callsubr
        </CharString>
        <CharString name="nine">
          -89 -20 307 194 303 377 316 hstem
          53 383 340 357 vstem
          776 651 rmoveto
          -252 -13 -156 -112 -283 hhcurveto
          -57 -58 5 11 -57 hvcurveto
          -312 vlineto
          -8 47 68 -3 89 hhcurveto
          271 198 64 128 123 hvcurveto
          123 128 62 207 286 vvcurveto
          219 -49 168 -99 119 vhcurveto
          119 -97 -138 59 -179 hhcurveto
          -161 -126 -46 -92 -93 hvcurveto
          -93 -92 -45 -127 -162 vvcurveto
          -149 36 -116 71 -85 vhcurveto
          -85 71 99 -42 127 hhcurveto
          109 70 23 43 51 hvcurveto
          25 21 26 35 26 48 rrcurveto
          -182 510 rmoveto
          45 38 -21 -43 29 hvcurveto
          30 -43 15 -51 -59 vvcurveto
          -44 -16 -38 -32 -31 vhcurveto
          -31 -32 -38 -16 -43 hhcurveto
          -96 -46 70 109 139 59 59 87 hvcurveto
          endchar
        </CharString>
        <CharString name="ntilde">
          83 846 307 -20 -20 126 -36 callsubr
          135 391 324 5 callgsubr
          hintmask 01010110
          925 39 callsubr
          hintmask 01100110
          -36 callgsubr
          hintmask 01001110
          -85 callsubr
          hintmask 01100110
          -43 callgsubr
          hintmask 01010110
          -57 callgsubr
          -628 -589 rmoveto
          -29 callsubr
          hintmask 10100110
          -64 callsubr
        </CharString>
        <CharString name="numbersign">
          67 391 254 168 260 389 -20 hstem
          37 1282 vstem
          1090 1073 rmoveto
          73 16 callsubr
          -166 hlineto
          74 16 callsubr
          -287 -260 238 hlineto
          -31 -168 rlineto
          -274 -254 225 hlineto
          -72 -391 rlineto
          267 hlineto
          71 391 rlineto
          168 hlineto
          -73 -391 rlineto
          268 hlineto
          74 391 rlineto
          290 254 -243 hlineto
          30 168 rlineto
          277 260 hlineto
          -711 -260 rmoveto
          166 hlineto
          -31 -168 rlineto
          -165 hlineto
          endchar
        </CharString>
        <CharString name="nundageshhb">
          -384 11 callsubr
          248 307 hstemhm
          104 189 94 37 callsubr
          hintmask 11111000
          -66 callgsubr
          69 -539 -104 callgsubr
        </CharString>
        <CharString name="o">
          -44 callsubr
          -20 callsubr
          655 1153 -105 callsubr
        </CharString>
        <CharString name="oacute">
          -44 callsubr
          395 21 -20 callsubr
          999 -92 callgsubr
          -344 -395 -105 callsubr
        </CharString>
        <CharString name="ocircumflex">
          -44 callsubr
          88 29 -20 callsubr
          458 -93 callgsubr
          -196 -416 -105 callsubr
        </CharString>
        <CharString name="odieresis">
          -44 callsubr
          104 13 callgsubr
          30 callsubr
          -242 -39 callgsubr
          -246 398 37 callgsubr
          411 -87 callgsubr
          hintmask 11110010
          -237 -418 -105 callsubr
        </CharString>
        <CharString name="oe">
          718 -20 278 -278 290 191 246 155 291 -266 266 hstemhm
          86 399 334 412 340 350 hintmask 00000000
          hintmask 10101111
          1849 344 rmoveto
          27 callsubr
          9 callgsubr
          331 -188 189 -303 -163 -134 -42 -85 -103 vhcurveto
          hintmask 01110111
          85 -99 -125 42 -151 hhcurveto
          -360 -209 -215 -369 -361 219 -228 344 167 134 46 91 101 hvcurveto
          hintmask 10101111
          -91 97 127 -46 159 hhcurveto
          177 115 20 63 123 hvcurveto
          -618 644 -4 callsubr
          hintmask 01110111
          -920 155 -79 callsubr
          -45 104 195 193 47 100 119 hvcurveto
          endchar
        </CharString>
        <CharString name="ogonek">
          -855 -492 226 hstem
          -6 450 vstem
          168 hmoveto
          -125 -88 -49 -80 -92 vvcurveto
          -137 113 -95 163 61 58 9 18 55 vhcurveto
          221 vlineto
          -15 -32 -39 -7 -47 hhcurveto
          -52 -26 22 45 26 9 27 18 29 hvcurveto
          18 29 35 39 53 49 rrcurveto
          endchar
        </CharString>
        <CharString name="ograve">
          -44 callsubr
          395 21 -20 callsubr
          307 -88 callgsubr
          -82 -416 -105 callsubr
        </CharString>
        <CharString name="one">
          -89 -14 callsubr
          541 401 vstem
          942 hmoveto
          -52 callgsubr
          -356 vlineto
          -502 -409 205 -252 166 137 37 32 30 32 25 30 rlinecurve
          -4 -78 -2 -86 -94 vvcurveto
          -774 vlineto
          endchar
        </CharString>
        <CharString name="onehalf">
          632 0 226 461 213 562 -20 hstemhm
          265 282 608 674 -310 289 hintmask 11110100
          547 -82 callsubr
          417 -586 rmoveto
          -35 callsubr
          901 599 rmoveto
          -21 callsubr
          hintmask 11111000
          -215 -213 rlineto
          -208 674 226 31 callsubr
          31 rrcurveto
          hintmask 11110100
          31 32 -35 callgsubr
        </CharString>
        <CharString name="onequarter">
          630 140 201 1121 -20 hstem
          265 282 851 275 vstem
          547 -82 callsubr
          393 -586 rmoveto
          -35 callsubr
          1316 -66 callsubr
        </CharString>
        <CharString name="onesuperior">
          -472 -14 callsubr
          334 282 vstem
          616 -82 callsubr
          endchar
        </CharString>
        <CharString name="oslash">
          73 -20 270 633 270 -33 -20 hstemhm
          86 375 438 375 hintmask 10111000
          1157 1120 rmoveto
          hintmask 11011000
          -168 105 -71 -111 rlineto
          26 -73 -78 13 -83 hhcurveto
          -379 -219 -215 -369 -199 63 -152 125 -105 hvcurveto
          -79 -123 170 -107 84 131 rlineto
          -23 69 77 -11 83 hhcurveto
          377 219 216 373 193 -61 149 -123 105 hvcurveto
          -617 -594 rmoveto
          -8 32 -4 49 66 vvcurveto
          221 67 93 152 31 27 -4 -9 24 vhcurveto
          127 -170 rmoveto
          7 -30 3 -44 -57 vvcurveto
          -231 -65 -88 -152 -33 -25 3 5 -18 vhcurveto
          endchar
        </CharString>
        <CharString name="otilde">
          -44 callsubr
          86 -36 callsubr
          30 callsubr
          336 398 hintmask 00000000
          hintmask 11010110
          892 39 callsubr
          hintmask 11100110
          -36 callgsubr
          hintmask 11001110
          -85 callsubr
          hintmask 11100110
          -43 callgsubr
          hintmask 11010110
          -57 callgsubr
          -419 -428 -105 callsubr
        </CharString>
        <CharString name="overscore">
          -265 12 callsubr
          246 hstem
          -6 1036 vstem
          1030 12 callsubr
          rmoveto
          246 -1036 -246 vlineto
          endchar
        </CharString>
        <CharString name="p">
          28 -20 315 551 287 -287 -3 callsubr
          305 398 hintmask 10011100
          508 988 rmoveto
          -55 145 rlineto
          -318 -1625 391 455 hlineto
          19 -6 50 -12 79 vhcurveto
          18 hlineto
          -99 89 85 -32 115 hhcurveto
          127 101 52 105 74 hvcurveto
          75 105 37 144 183 vvcurveto
          181 -36 143 -71 103 vhcurveto
          hintmask 10101100
          105 -71 -99 52 -125 hhcurveto
          -128 -100 -55 -110 -73 hvcurveto
          -386 vmoveto
          hintmask 11001100
          161 4 39 83 115 hhcurveto
          105 42 -78 -195 -199 -43 -79 -100 29 callgsubr
        </CharString>
        <CharString name="paragraph">
          28 1327 229 hstem
          647 191 156 192 vstem
          1186 -260 rmoveto
          1816 -633 vlineto
          -315 -136 -173 -341 -335 132 -166 288 47 42 6 12 36 hvcurveto
          -819 191 1587 156 -1587 vlineto
          endchar
        </CharString>
        <CharString name="parenleft">
          35 callgsubr
          74 344 vstem
          354 1503 rmoveto
          -184 -220 -96 -315 -386 vvcurveto
          -384 97 -311 183 -211 vhcurveto
          324 hlineto
          -85 119 -65 137 -44 156 rrcurveto
          -44 157 -22 165 174 vvcurveto
          180 23 169 45 158 vhcurveto
          45 158 65 137 84 117 rrcurveto
          endchar
        </CharString>
        <CharString name="parenright">
          35 callgsubr
          317 345 vstem
          55 1503 rmoveto
          173 -241 89 -325 -353 vvcurveto
          -175 -22 -167 -45 -158 vhcurveto
          -45 -157 -64 -136 -84 -115 rrcurveto
          324 hlineto
          184 213 97 316 377 vvcurveto
          377 -96 323 -185 221 vhcurveto
          endchar
        </CharString>
        <CharString name="pedageshhb">
          19 -20 300 480 173 73 309 hstem
          86 392 82 189 79 -83 callsubr
          130 519 -104 callgsubr
        </CharString>
        <CharString name="percent">
          653 -47 callsubr
          hintmask 0000000000000000
          hintmask 1101011110000000
          -68 callgsubr
          hintmask 1010111110000000
          1 callgsubr
          hintmask 1101011110000000
          -30 callgsubr
          hintmask 1010111110000000
          -69 callsubr
          4 -21 callgsubr
          endchar
        </CharString>
        <CharString name="period">
          -697 -25 383 hstem
          86 5 callsubr
          358 rmoveto
          -84 callgsubr
          endchar
        </CharString>
        <CharString name="periodcentered">
          -697 530 385 hstem
          86 5 callsubr
          915 rmoveto
          -44 callgsubr
          80 -72 133 128 77 73 -50 callsubr
          endchar
        </CharString>
        <CharString name="perthousand">
          1468 -47 callsubr
          63 301 152 301 hintmask 0000000000000000
          hintmask 0101011000000000
          -68 callgsubr
          hintmask 0000101000000000
          1 callgsubr
          hintmask 0101011000000000
          -30 callgsubr
          hintmask 1010000111100000
          -69 callsubr
          817 hmoveto
          -47 callgsubr
          34 -112 67 -83 hvcurveto
          -83 68 91 -41 113 hhcurveto
          240 141 163 297 -34 callgsubr
          -813 -21 callgsubr
          817 hmoveto
          57 19 -84 -133 -133 -19 -84 -57 -51 -25 72 145 133 19 84 57 hvcurveto
          endchar
        </CharString>
        <CharString name="plus">
          -130 588 268 35 callsubr
          856 9 callsubr
          -361 269 361 372 268 vlineto
          endchar
        </CharString>
        <CharString name="plusminus">
          -130 0 268 416 268 367 -20 35 callsubr
          952 9 callsubr
          -360 269 360 372 268 vlineto
          -952 vmoveto
          268 -1013 -268 vlineto
          endchar
        </CharString>
        <CharString name="q">
          28 -20 303 567 283 -283 303 -20 -20 hstemhm
          30 callsubr
          308 391 hintmask 10010100
          803 143 rmoveto
          -8 -88 -4 -55 -23 vvcurveto
          -469 391 1625 -338 vlineto
          -29 -141 rlineto
          -8 hlineto
          hintmask 10101100
          108 -69 -103 53 -137 hhcurveto
          -127 -101 -52 -105 -74 hvcurveto
          -73 -103 -37 -144 -184 vvcurveto
          -182 36 -143 72 -104 vhcurveto
          -104 72 99 -52 127 hhcurveto
          135 100 54 109 64 hvcurveto
          30 381 rmoveto
          -175 -51 -66 -119 -115 -53 79 197 vhcurveto
          hintmask 11001100
          194 54 97 108 125 51 -79 -200 vhcurveto
          endchar
        </CharString>
        <CharString name="qofdageshhb">
          99 -14 callgsubr
          hstemhm
          135 388 31 189 -88 385 hintmask 11101000
          -56 callgsubr
          -1003 -1007 rmoveto
          388 1272 -388 hlineto
          hintmask 11110000
          513 -20 -104 callgsubr
        </CharString>
        <CharString name="question">
          -255 -25 383 818 307 hstemhm
          252 418 -375 307 27 367 hintmask 11010000
          139 1069 rmoveto
          71 135 117 36 101 hhcurveto
          hintmask 11011000
          81 56 -35 -56 -71 -44 -47 -108 -68 hvcurveto
          hintmask 11010000
          -68 -43 -47 -44 -27 -45 rrcurveto
          -27 -45 -13 -55 -65 vvcurveto
          -86 307 51 vlineto
          29 9 24 17 21 vhcurveto
          18 21 44 34 70 45 rrcurveto
          hintmask 11011000
          165 105 71 111 161 vvcurveto
          113 -41 89 -85 65 vhcurveto
          65 -85 -116 33 -149 hhcurveto
          -181 -173 -47 -95 -166 hvcurveto
          hintmask 11100000
          463 -983 rmoveto
          -139 -72 -69 -123 -123 79 -68 132 128 79 70 121 121 -74 71 -133 hvcurveto
          endchar
        </CharString>
        <CharString name="questiondown">
          -255 -354 307 817 383 hstemhm
          37 369 -41 417 -350 307 hintmask 00000000
          hintmask 11010000
          571 1153 rmoveto
          -131 -75 -70 -120 -124 71 -69 135 140 71 69 124 121 -76 69 -135 hvcurveto
          hintmask 11001000
          168 -541 rmoveto
          -307 -51 hlineto
          -29 -10 -26 -19 -22 vhcurveto
          -19 -22 -43 -32 -67 -43 rrcurveto
          hintmask 11101000
          -85 -54 -60 -56 -37 -59 rrcurveto
          -37 -59 -18 -69 -81 vvcurveto
          -111 42 -89 85 -65 vhcurveto
          -65 85 116 -33 149 hhcurveto
          185 173 47 94 162 hvcurveto
          -139 272 rlineto
          -71 -136 -117 -35 -99 hhcurveto
          -83 -54 34 56 hvcurveto
          1 75 35 33 115 78 rrcurveto
          hintmask 11001000
          68 43 47 43 27 45 rrcurveto
          27 45 13 56 65 vvcurveto
          endchar
        </CharString>
        <CharString name="quotedbl">
          -216 934 528 hstem
          121 831 -6 callsubr
          749 hmoveto
          -15 callgsubr
          endchar
        </CharString>
        <CharString name="quotedblbase">
          -146 276 23 hstem
          57 965 -74 callgsubr
          496 23 -52 callsubr
          -19 -114 -20 -71 callgsubr
          endchar
        </CharString>
        <CharString name="quotedblleft">
          -267 877 22 hstem
          20 964 -45 callgsubr
          232 hmoveto
          -53 callsubr
          44 208 rrcurveto
          endchar
        </CharString>
        <CharString name="quotedblright">
          -267 1438 22 hstem
          37 964 vstem
          477 1460 -69 callgsubr
        </CharString>
        <CharString name="quoteleft">
          -777 877 22 hstem
          20 455 -45 callgsubr
          endchar
        </CharString>
        <CharString name="quoteright">
          -777 1438 22 hstem
          37 455 vstem
          477 1460 -76 callgsubr
          endchar
        </CharString>
        <CharString name="quotesinglbase">
          -62 callsubr
        </CharString>
        <CharString name="quotesingle">
          -691 934 528 hstem
          121 356 -6 callsubr
          endchar
        </CharString>
        <CharString name="r">
          -328 784 369 -20 -20 28 -20 38 callgsubr
          hintmask 00110000
          487 952 rmoveto
          hintmask 01010000
          -61 181 rlineto
          -291 -1133 391 557 hlineto
          hintmask 10010000
          147 73 80 171 57 44 -4 -8 32 vhcurveto
          hintmask 00110000
          35 369 -22 4 rlineto
          hintmask 10010000
          5 -31 -32 3 -34 hhcurveto
          -59 -59 -19 -37 -59 hvcurveto
          -58 -37 -45 -48 -33 -60 rrcurveto
          endchar
        </CharString>
        <CharString name="registered">
          399 -20 163 490 176 183 196 131 164 hstem
          92 164 250 280 136 282 228 163 vstem
          -95 callsubr
          -338 -131 rmoveto
          -875 280 320 35 vlineto
          146 -320 rlineto
          290 hlineto
          -194 363 rlineto
          100 48 41 78 116 vvcurveto
          180 -136 90 -271 vhcurveto
          -11 -196 rmoveto
          13 hlineto
          91 32 -23 -62 -73 -48 -25 -77 hvcurveto
          -11 hlineto
          endchar
        </CharString>
        <CharString name="reshdageshhb">
          -163 -2 callgsubr
          255 16 callgsubr
          266 189 152 -59 callsubr
          309 -534 -104 callgsubr
        </CharString>
        <CharString name="ring">
          -169 1237 168 168 170 hstem
          293 21 callsubr
          vstem
          -67 callgsubr
          endchar
        </CharString>
        <CharString name="s">
          27 callgsubr
          hstemhm
          119 373 -373 891 -369 369 hintmask 11010000
          121 43 rmoveto
          65 -24 63 -16 62 -9 rrcurveto
          -9 62 73 -5 84 hhcurveto
          hintmask 11101000
          36 callsubr
          121 -36 81 -78 63 hvcurveto
          -39 31 -59 32 -79 33 -107 42 -64 28 -23 13 rrcurveto
          -22 14 34 callsubr
          37 47 -8 -17 58 vhcurveto
          58 -16 55 -20 52 -23 106 252 rcurveline
          24 callgsubr
          -149 -115 -29 -59 -81 hvcurveto
          -81 -59 -41 -82 -105 vvcurveto
          -83 21 -69 41 -55 vhcurveto
          41 -54 73 -48 104 -43 114 -45 69 -31 23 -16 rrcurveto
          24 -15 36 callgsubr
          -57 -64 9 17 -73 vhcurveto
          -72 17 -66 22 -61 27 rrcurveto
          endchar
        </CharString>
        <CharString name="samekhdageshhb">
          19 -19 308 298 173 254 25 callgsubr
          354 189 80 393 hintmask 00000000
          hintmask 11101110
          99 986 rmoveto
          107 7 rlineto
          hintmask 11110110
          -46 callsubr
          hintmask 11101110
          -33 callgsubr
          hintmask 11110110
          -1 callgsubr
          hintmask 11101110
          0 33 4 45 vhcurveto
          hintmask 11110110
          -254 vmoveto
          -106 callsubr
          endchar
        </CharString>
        <CharString name="scaron">
          27 callgsubr
          387 29 hstemhm
          97 913 -891 373 149 369 hintmask 11110000
          1004 -81 callsubr
          -883 -1497 rmoveto
          -48 129 112 -15 168 hhcurveto
          hintmask 11101100
          36 callsubr
          61 -9 51 -18 43 hvcurveto
          -37 84 -68 57 -159 65 -107 42 -64 28 -22 14 rrcurveto
          -23 13 34 callsubr
          73 130 -37 -47 104 vhcurveto
          106 252 rlineto
          24 callgsubr
          -297 -170 -123 -211 -167 72 -100 208 -85 hvcurveto
          114 -45 69 -31 24 -15 rrcurveto
          23 -16 36 callgsubr
          -113 -159 39 53 -121 vhcurveto
          endchar
        </CharString>
        <CharString name="section">
          -265 -25 222 1159 221 hstemhm
          106 291 -268 295 186 295 -268 291 hintmask 11010100
          117 61 rmoveto
          -57 99 117 -29 136 hhcurveto
          135 107 29 59 77 hvcurveto
          hintmask 11011000
          78 59 39 80 99 vvcurveto
          100 -42 81 -83 63 vhcurveto
          hintmask 11010100
          112 80 36 75 103 vvcurveto
          129 -97 106 -233 95 vhcurveto
          -111 45 -63 47 57 vvcurveto
          49 36 25 72 73 105 -33 -53 97 vhcurveto
          98 221 rlineto
          57 -119 -124 29 -127 hhcurveto
          -123 -98 -26 -53 -74 hvcurveto
          -74 -53 -37 -72 -91 vvcurveto
          -96 47 -82 94 -68 vhcurveto
          hintmask 11101000
          -104 -64 -60 -84 -85 vvcurveto
          -107 43 -75 85 -65 vhcurveto
          43 -33 69 -37 94 -42 72 -32 46 -26 21 -21 rrcurveto
          21 -20 10 -24 -28 vvcurveto
          -64 -46 -32 -93 -46 -57 11 21 -69 vhcurveto
          -69 21 -60 26 -53 29 rrcurveto
          338 631 rmoveto
          hintmask 11100100
          131 -55 51 -53 -76 vvcurveto
          -40 -14 -36 -27 -31 vhcurveto
          -74 39 -52 32 -29 27 rrcurveto
          -29 27 -15 30 34 vvcurveto
          hintmask 11101000
          47 19 34 39 21 vhcurveto
          endchar
        </CharString>
        <CharString name="semicolon">
          -681 276 23 465 383 hstem
          92 418 vstem
          303 1147 rmoveto
          -139 -72 -70 -121 -121 75 -71 136 132 75 72 120 120 -74 71 -133 hvcurveto
          195 -848 -84 callsubr
          endchar
        </CharString>
        <CharString name="seven">
          -89 -38 callgsubr
          327 hstem
          78 1055 vstem
          -38 callgsubr
          1227 rmoveto
          233 -1055 -327 633 vlineto
          -502 -1133 rlineto
          409 hlineto
          endchar
        </CharString>
        <CharString name="shindageshhb">
          -16 callsubr
          hstem
          851 130 vstem
          1544 1295 -96 callgsubr
        </CharString>
        <CharString name="shindageshshindothb">
          -16 callsubr
          114 13 callsubr
          851 130 384 23 callgsubr
          1459 -53 callgsubr
          85 -267 -96 callgsubr
        </CharString>
        <CharString name="shindageshsindothb">
          -16 callsubr
          105 13 callsubr
          69 189 593 130 vstem
          163 1553 -107 callsubr
          1381 -258 -96 callgsubr
        </CharString>
        <CharString name="six">
          -89 -20 313 377 304 202 307 -17 -20 hstemhm
          70 356 328 383 hintmask 11101100
          426 805 rmoveto
          6 131 35 95 65 58 rrcurveto
          58 65 98 29 132 hhcurveto
          78 71 -6 -13 68 hvcurveto
          hintmask 11011100
          309 vlineto
          hintmask 11101100
          11 -79 -70 6 -59 hhcurveto
          -499 -4 -267 -249 -612 vvcurveto
          -201 49 -157 97 -112 vhcurveto
          -112 97 135 -56 173 hhcurveto
          163 126 46 93 91 hvcurveto
          91 93 45 127 161 vvcurveto
          149 -36 117 -72 83 vhcurveto
          84 -71 -101 41 -130 hhcurveto
          -133 -96 -56 -113 -60 hvcurveto
          178 -135 rmoveto
          92 46 -59 -119 -139 -58 -60 -84 -45 -36 20 41 -27 hvcurveto
          -27 41 -14 53 64 vvcurveto
          44 14 37 28 31 vhcurveto
          31 29 37 15 45 hhcurveto
          endchar
        </CharString>
        <CharString name="slash">
          -384 1483 -20 hstem
          9 892 vstem
          356 -20 rmoveto
          545 1503 rlineto
          -346 hlineto
          -546 -1503 rlineto
          endchar
        </CharString>
        <CharString name="space">
          -757 endchar
        </CharString>
        <CharString name="sterling">
          -89 0 326 323 277 243 316 hstem
          268 385 vstem
          268 926 rmoveto
          -166 -277 166 -98 hlineto
          -75 -16 -47 -39 -40 vhcurveto
          -19 -19 -36 -26 -54 -31 rrcurveto
          -313 1061 326 -671 vlineto
          106 51 53 76 100 vvcurveto
          96 343 277 -343 106 vlineto
          95 36 42 77 69 84 -18 -37 99 vhcurveto
          110 289 rlineto
          55 -131 -134 27 -140 hhcurveto
          -295 -160 -154 -287 hvcurveto
          endchar
        </CharString>
        <CharString name="t">
          -347 -20 309 551 293 hstem
          190 394 vstem
          584 -38 callgsubr
          rmoveto
          227 -256 vlineto
          -101 -238 -174 -124 rlineto
          -158 137 -467 vlineto
          -267 108 -126 263 64 56 5 10 47 vhcurveto
          48 9 50 16 53 23 rrcurveto
          285 vlineto
          -26 -73 -63 -13 -53 hhcurveto
          -71 -35 37 73 hvcurveto
          441 278 293 vlineto
          endchar
        </CharString>
        <CharString name="tavdageshhb">
          148 -19 307 289 173 264 16 callgsubr
          264 388 34 189 43 -78 callsubr
          654 -527 -104 callgsubr
        </CharString>
        <CharString name="tetdageshhb">
          62 -19 310 296 173 248 6 callgsubr
          130 389 79 189 88 390 hintmask 00000000
          hintmask 11101010
          -38 callsubr
          hintmask 11011010
          -23 callsubr
          hintmask 11101110
          1 callsubr
          38 -542 -104 callgsubr
        </CharString>
        <CharString name="thorn">
          -31 callsubr
          -2048 391 449 hlineto
          -7 92 -7 60 rlineto
          14 hlineto
          -86 76 96 -43 115 hhcurveto
          257 159 228 361 368 -155 216 -247 -133 -111 -62 -104 -57 hvcurveto
          -18 hlineto
          12 79 6 75 71 vvcurveto
          -612 vmoveto
          164 4 39 82 113 hhcurveto
          111 38 -94 -179 -183 -36 -95 -107 29 callgsubr
        </CharString>
        <CharString name="three">
          -89 -20 311 309 297 268 318 hstemhm
          690 383 -375 418 hintmask 11101000
          236 1071 rmoveto
          63 100 97 31 93 hhcurveto
          hintmask 11110000
          100 64 -37 -77 -103 -100 -51 -201 hvcurveto
          -92 -297 90 hlineto
          hintmask 11101000
          224 -4 87 -36 -118 vvcurveto
          -104 -76 -47 -173 -112 -139 31 65 -128 vhcurveto
          -328 vlineto
          78 -30 72 -21 67 -11 rrcurveto
          -11 67 73 -6 79 hhcurveto
          191 150 39 77 107 hvcurveto
          108 79 54 107 136 vvcurveto
          200 -123 115 -243 31 vhcurveto
          6 vlineto
          hintmask 11110000
          209 59 114 135 181 vvcurveto
          105 -43 83 -86 60 vhcurveto
          60 -86 -119 30 -151 hhcurveto
          -105 -93 -11 -23 -81 hvcurveto
          -81 -23 -79 -38 -77 -53 rrcurveto
          endchar
        </CharString>
        <CharString name="threequarters">
          632 140 201 228 19 callgsubr
          -19 -20 hstemhm
          264 26 callgsubr
          696 275 hintmask 0000000000000000
          hintmask 1111001010000000
          200 1196 rmoveto
          0 callsubr
          hintmask 1110110010000000
          -80 -194 104 hlineto
          hintmask 1110100110000000
          -46 callgsubr
          hintmask 1110110010000000
          17 callsubr
          hintmask 1111001010000000
          -33 callsubr
          683 -1366 rmoveto
          hintmask 1110100010000000
          -35 callsubr
          1280 -66 callsubr
        </CharString>
        <CharString name="threesuperior">
          -472 569 19 callgsubr
          hstemhm
          244 26 callgsubr
          hintmask 11100100
          180 1196 rmoveto
          hintmask 11101000
          0 callsubr
          hintmask 11110000
          -80 -194 104 hlineto
          hintmask 11100100
          -46 callgsubr
          hintmask 11110000
          17 callsubr
          hintmask 11101000
          -33 callsubr
          endchar
        </CharString>
        <CharString name="tilde">
          -64 1239 -36 callsubr
          176 842 hintmask 00000000
          hintmask 01010000
          836 39 callsubr
          hintmask 10010000
          -36 callgsubr
          hintmask 00110000
          -85 callsubr
          hintmask 10010000
          -43 callgsubr
          hintmask 01010000
          -57 callgsubr
          endchar
        </CharString>
        <CharString name="trademark">
          288 1286 176 hstem
          207 196 242 193 462 195 vstem
          573 1286 rmoveto
          176 -536 -176 170 -545 196 545 vlineto
          1092 -545 rmoveto
          721 -276 vlineto
          -150 -480 -137 480 rlineto
          -287 -721 193 400 hlineto
          36 -2 37 -5 37 vhcurveto
          9 hlineto
          142 -510 rlineto
          165 hlineto
          151 510 rlineto
          9 hlineto
          -5 -28 -2 -37 -45 vvcurveto
          -400 vlineto
          endchar
        </CharString>
        <CharString name="tsadidageshhb">
          18 -11 callgsubr
          143 173 680 -20 hstem
          170 189 -73 callsubr
          -947 -419 -104 callgsubr
        </CharString>
        <CharString name="two">
          -89 0 326 825 332 hstem
          702 392 vstem
          262 994 rmoveto
          104 119 88 53 92 hhcurveto
          89 52 -47 -76 -61 -21 -49 -63 -79 hvcurveto
          -31 -39 -67 -72 -102 -107 -357 -361 rcurveline
          -260 1061 326 -553 10 vlineto
          162 145 106 99 49 52 50 52 39 49 31 47 rrcurveto
          60 95 28 92 116 vvcurveto
          5 231 -210 174 -283 -5 rrcurveto
          -151 -117 -31 -59 -103 hvcurveto
          -51 -29 -64 -48 -75 -67 rrcurveto
          endchar
        </CharString>
        <CharString name="twosuperior">
          -472 586 225 461 213 hstemhm
          61 689 -674 674 -310 289 hintmask 11100000
          203 1184 rmoveto
          hintmask 11001000
          -21 callsubr
          hintmask 11010000
          -215 -213 rlineto
          -207 674 225 31 callsubr
          30 rrcurveto
          hintmask 11001000
          31 33 -35 callgsubr
        </CharString>
        <CharString name="u">
          -17 callsubr
          -28 callsubr
          1237 hmoveto
          -49 callgsubr
          -496 vlineto
          -95 callgsubr
          49 -141 rlineto
          endchar
        </CharString>
        <CharString name="uacute">
          -17 callsubr
          435 21 -28 callsubr
          1032 -92 callgsubr
          -90 -1548 -88 callsubr
        </CharString>
        <CharString name="ucircumflex">
          -17 callsubr
          128 29 -28 callsubr
          491 -93 callgsubr
          58 -1569 -88 callsubr
        </CharString>
        <CharString name="udieresis">
          -17 callsubr
          144 13 callgsubr
          133 391 -250 -39 callgsubr
          -252 5 callgsubr
          hintmask 11101010
          444 1571 -97 callgsubr
          hintmask 11110100
          -78 callgsubr
          hvcurveto
          hintmask 11110010
          106 67 61 95 hvcurveto
          hintmask 11101010
          96 -67 62 -106 vhcurveto
          17 -1571 rmoveto
          295 hlineto
          hintmask 11110010
          -49 callgsubr
          -496 vlineto
          -95 callgsubr
          endchar
        </CharString>
        <CharString name="ugrave">
          -17 callsubr
          435 21 -28 callsubr
          340 -88 callgsubr
          172 -1569 -88 callsubr
        </CharString>
        <CharString name="underscore">
          -265 -379 246 hstem
          -4 1032 vstem
          1028 -379 rmoveto
          246 -1032 -246 vlineto
          endchar
        </CharString>
        <CharString name="uni00A0">
          -757 endchar
        </CharString>
        <CharString name="uni00AD">
          -23 callgsubr
        </CharString>
        <CharString name="uni05B0">
          -515 173 68 13 callsubr
          537 187 vstem
          631 -101 -11 callsubr
          -241 vmoveto
          -72 callsubr
          endchar
        </CharString>
        <CharString name="uni05B1">
          -5 callgsubr
          hstemhm
          285 187 -35 186 -42 189 77 187 37 callgsubr
          378 -116 rmoveto
          -57 4 callsubr
          57 58 36 33 53 53 -36 34 -58 hvcurveto
          297 hmoveto
          -96 callsubr
          57 38 33 53 52 -38 35 -57 hvcurveto
          266 hmoveto
          -9 callsubr
          33 53 -54 callgsubr
          hintmask 11010100
          -411 -241 -48 callsubr
          411 hmoveto
          -72 callsubr
          endchar
        </CharString>
        <CharString name="uni05B2">
          -5 callgsubr
          -143 117 hstemhm
          351 367 85 186 hintmask 00000000
          hintmask 01011000
          896 -116 -48 callgsubr
          hintmask 10111000
          -178 26 callsubr
          vlineto
          545 -98 -48 callsubr
          endchar
        </CharString>
        <CharString name="uni05B3">
          -5 callgsubr
          -143 117 hstemhm
          479 111 216 187 hintmask 00000000
          hintmask 01011000
          900 -116 -11 callsubr
          hintmask 10111000
          -182 26 callsubr
          128 -202 111 202 vlineto
          310 -98 rmoveto
          -72 callsubr
          endchar
        </CharString>
        <CharString name="uni05B4">
          -284 18 callsubr
          -111 -104 callgsubr
        </CharString>
        <CharString name="uni05B5">
          -265 13 callsubr
          387 186 109 190 vstem
          480 -92 -48 callsubr
          297 hmoveto
          -60 -7 callgsubr
          60 57 38 34 52 52 -38 35 -57 hvcurveto
          endchar
        </CharString>
        <CharString name="uni05B6">
          -5 callgsubr
          hstemhm
          387 186 -35 187 -43 190 hintmask 11101000
          480 -116 -48 callgsubr
          297 hmoveto
          -60 -7 callgsubr
          60 57 38 33 53 52 -38 35 -57 hvcurveto
          hintmask 11010000
          -145 -241 rmoveto
          -72 callsubr
          endchar
        </CharString>
        <CharString name="uni05B7">
          -234 116 hstem
          432 393 vstem
          825 -234 20 callgsubr
        </CharString>
        <CharString name="uni05B8">
          -255 117 hstem
          573 111 vstem
          820 -255 -10 callsubr
        </CharString>
        <CharString name="uni05B9">
          -74 callsubr
        </CharString>
        <CharString name="uni05BA">
          -74 callsubr
        </CharString>
        <CharString name="uni05BB">
          -651 173 2 173 3 173 hstemhm
          394 186 -5 187 -2 189 hintmask 10110100
          487 -127 -48 callgsubr
          hintmask 01001000
          182 -176 rmoveto
          -72 callsubr
          hintmask 10110100
          185 -175 -104 callgsubr
        </CharString>
        <CharString name="uni05BC">
          570 18 callsubr
          743 -104 callgsubr
        </CharString>
        <CharString name="uni05BD">
          -33 -509 352 hstem
          576 103 vstem
          679 -509 rmoveto
          352 -103 -352 vlineto
          endchar
        </CharString>
        <CharString name="uni05BE">
          -638 982 313 hstem
          43 565 vstem
          608 982 rmoveto
          313 -565 -313 vlineto
          endchar
        </CharString>
        <CharString name="uni05C1">
          1410 13 callsubr
          482 23 callgsubr
          576 1583 -104 callgsubr
        </CharString>
        <CharString name="uni05C2">
          -74 callsubr
        </CharString>
        <CharString name="uni05C7">
          -210 100 hstem
          267 93 vstem
          521 -210 rmoveto
          100 -410 -100 156 -234 93 234 vlineto
          endchar
        </CharString>
        <CharString name="uni05D0">
          89 6 callsubr
          40 callgsubr
          367 -94 callgsubr
          endchar
        </CharString>
        <CharString name="uni05D1">
          -93 -11 callgsubr
          716 16 callgsubr
          639 -63 callsubr
          endchar
        </CharString>
        <CharString name="uni05D2">
          -305 -20 348 681 306 hstem
          462 -75 callsubr
          endchar
        </CharString>
        <CharString name="uni05D3">
          -154 39 callgsubr
          -274 274 hstemhm
          551 388 hintmask 10100000
          -30 callsubr
          hintmask 01100000
          32 callsubr
          endchar
        </CharString>
        <CharString name="uni05D4">
          60 0 755 260 16 callgsubr
          136 387 307 -56 callsubr
          388 -1277 rmoveto
          755 -387 -755 vlineto
          endchar
        </CharString>
        <CharString name="uni05D5">
          -631 6 callsubr
          135 -4 callgsubr
          523 hmoveto
          -39 callsubr
          -388 -1295 vlineto
          endchar
        </CharString>
        <CharString name="uni05D6">
          -558 39 callgsubr
          -279 279 hstemhm
          92 616 -572 37 callsubr
          hintmask 10100000
          8 callgsubr
          hintmask 10010000
          -24 callsubr
          hintmask 01100000
          43 71 51 40 0 vvcurveto
          endchar
        </CharString>
        <CharString name="uni05D7">
          60 1015 -1 callsubr
          388 1012 hlineto
          2 39 38 1 34 hhcurveto
          -26 callgsubr
          hvcurveto
          -822 389 822 vlineto
          315 -70 178 -3 callgsubr
          endchar
        </CharString>
        <CharString name="uni05D8">
          62 -19 310 717 6 callgsubr
          130 389 356 390 hintmask 00000000
          hintmask 11011000
          -38 callsubr
          hintmask 10111000
          -23 callsubr
          hintmask 11011000
          1 callsubr
          endchar
        </CharString>
        <CharString name="uni05D9">
          -654 6 callsubr
          127 -4 callgsubr
          515 691 rmoveto
          604 -388 -876 173 vlineto
          endchar
        </CharString>
        <CharString name="uni05DA">
          -181 1013 302 hstem
          590 -59 callgsubr
          endchar
        </CharString>
        <CharString name="uni05DB">
          -185 -20 312 721 302 hstem
          633 -77 callsubr
          endchar
        </CharString>
        <CharString name="uni05DC">
          -158 39 callgsubr
          hstem
          50 -4 callgsubr
          438 -42 callgsubr
          33 callgsubr
          vlineto
          -20 callgsubr
          237 vlineto
          endchar
        </CharString>
        <CharString name="uni05DD">
          60 -11 callgsubr
          715 -1 callsubr
          1084 883 hlineto
          311 -155 120 -392 -300 -237 -37 0 vhcurveto
          695 -978 rmoveto
          -307 711 hlineto
          0 61 4 50 118 78 -24 -95 vhcurveto
          endchar
        </CharString>
        <CharString name="uni05DE">
          136 -11 callgsubr
          708 308 -152 132 hstemhm
          900 395 hintmask 00000000
          hintmask 10110000
          -61 callgsubr
          hintmask 11010000
          -54 callsubr
          endchar
        </CharString>
        <CharString name="uni05DF">
          -670 6 callsubr
          95 29 callsubr
          28 -42 callgsubr
          0 67 -194 -280 vvcurveto
          -1294 389 1294 vlineto
          274 -67 200 0 vhcurveto
          endchar
        </CharString>
        <CharString name="uni05E0">
          -384 -11 callgsubr
          709 307 hstemhm
          387 37 callsubr
          hintmask 11100000
          -66 callgsubr
          endchar
        </CharString>
        <CharString name="uni05E1">
          19 -19 308 725 25 callgsubr
          623 393 hintmask 00000000
          hintmask 11011000
          99 986 rmoveto
          107 7 rlineto
          hintmask 11101000
          -46 callsubr
          hintmask 11011000
          -33 callgsubr
          hintmask 11101000
          -1 callgsubr
          hintmask 11011000
          0 33 4 45 vhcurveto
          endchar
        </CharString>
        <CharString name="uni05E2">
          25 6 callsubr
          50 1178 vstem
          1228 -42 callgsubr
          -386 hlineto
          -52 -588 -13 -142 -26 -92 -55 -64 rlinecurve
          -65 324 -157 562 rlineto
          -387 hlineto
          274 -1010 -311 -47 rlineto
          -308 vlineto
          447 70 629 99 36 455 15 171 rlinecurve
          endchar
        </CharString>
        <CharString name="uni05E3">
          20 1006 309 hstem
          43 392 351 -73 callgsubr
          endchar
        </CharString>
        <CharString name="uni05E4">
          19 -20 300 726 309 hstem
          86 392 350 -83 callsubr
          endchar
        </CharString>
        <CharString name="uni05E5">
          -76 418 274 603 -20 hstem
          285 388 67 387 vstem
          1127 -42 callgsubr
          -387 -456 hlineto
          -105 -29 -42 -67 vhcurveto
          -9 hlineto
          -217 603 rlineto
          -418 hlineto
          285 -713 rlineto
          -1074 388 910 31 vlineto
          344 79 211 195 hvcurveto
          endchar
        </CharString>
        <CharString name="uni05E6">
          18 -11 callgsubr
          996 -20 hstem
          45 1190 -73 callsubr
          endchar
        </CharString>
        <CharString name="uni05E7">
          99 39 callgsubr
          hstem
          135 388 132 385 vstem
          -56 callgsubr
          -615 -1007 rmoveto
          1272 -388 -1272 vlineto
          endchar
        </CharString>
        <CharString name="uni05E8">
          -163 1015 16 callgsubr
          607 -59 callsubr
          endchar
        </CharString>
        <CharString name="uni05E9">
          2 callsubr
          hstem
          86 1458 vstem
          1544 1295 -99 callsubr
          0 -50 602 0 vhcurveto
          -85 callgsubr
          endchar
        </CharString>
        <CharString name="uni05EA">
          148 -19 307 726 16 callgsubr
          264 388 266 -78 callsubr
          endchar
        </CharString>
        <CharString name="uni20AA">
          793 -11 callgsubr
          210 324 163 299 hstem
          135 386 131 346 131 335 122 376 vstem
          135 -42 callgsubr
          -1295 386 996 295 vlineto
          216 97 -33 -255 hvcurveto
          -199 335 217 vlineto
          257 -46 312 -642 vhcurveto
          1186 hmoveto
          -376 -482 hlineto
          -336 -105 -178 -368 vhcurveto
          -115 534 -346 -833 461 hlineto
          641 208 357 438 hvcurveto
          endchar
        </CharString>
        <CharString name="uniFB2A">
          2 callsubr
          114 13 callsubr
          1373 23 callgsubr
          1467 -53 callgsubr
          77 -80 callsubr
        </CharString>
        <CharString name="uniFB2B">
          2 callsubr
          114 13 callsubr
          33 23 callgsubr
          127 -53 callgsubr
          1417 -80 callsubr
        </CharString>
        <CharString name="uniFB35">
          -631 -2 callgsubr
          535 -20 hstem
          -94 189 40 -4 callgsubr
          135 hmoveto
          388 -39 callsubr
          -388 hlineto
          -135 -535 -104 callgsubr
        </CharString>
        <CharString name="uniFB4B">
          -631 -39 callsubr
          -20 114 173 hstemhm
          129 189 -183 388 hintmask 11010000
          223 1562 rmoveto
          hintmask 11100000
          -96 callsubr
          hvcurveto
          hintmask 11010000
          -98 callsubr
          -88 -1562 rmoveto
          388 -39 callsubr
          -388 hlineto
          endchar
        </CharString>
        <CharString name="v">
          -38 0 348 785 -20 hstem
          0 1251 vstem
          819 hmoveto
          432 -38 callgsubr
          rlineto
          -407 hlineto
          -201 -672 rlineto
          -12 -41 -6 -37 -35 vvcurveto
          -7 hlineto
          44 -16 59 -2 12 vhcurveto
          -192 670 rlineto
          -408 hlineto
          432 -1133 rlineto
          endchar
        </CharString>
        <CharString name="w">
          575 0 326 508 299 0 -20 hstemhm
          25 1814 hintmask 10110000
          1528 hmoveto
          311 -38 callgsubr
          rlineto
          -377 hlineto
          -100 -435 -11 -46 -11 -61 -9 -76 rlinecurve
          -9 -75 -7 -63 -4 -51 rrcurveto
          -6 hlineto
          -8 82 -19 115 -31 147 -96 463 rcurveline
          -432 hlineto
          -105 -457 -35 -172 -18 -117 -2 -61 rlinecurve
          -6 hlineto
          -5 99 -17 124 -29 149 -92 435 rcurveline
          -385 hlineto
          309 -1133 rlineto
          411 hlineto
          115 481 rlineto
          hintmask 11010000
          11 49 22 117 33 187 rrcurveto
          6 hlineto
          20 -131 29 -163 129 -540 rlineto
          endchar
        </CharString>
        <CharString name="x">
          1 -38 callgsubr
          -20 hstem
          9 1271 vstem
          911 578 rmoveto
          355 555 rlineto
          -445 hlineto
          -176 -318 -172 318 rlineto
          -444 hlineto
          346 -555 -366 -578 rlineto
          446 hlineto
          190 344 191 -344 rlineto
          444 hlineto
          endchar
        </CharString>
        <CharString name="y">
          -40 3 callgsubr
          hstem
          -2 1251 vstem
          1249 -38 callgsubr
          -82 callgsubr
        </CharString>
        <CharString name="yacute">
          -40 3 callgsubr
          435 21 hstem
          -2 1251 vstem
          971 -92 callgsubr
          278 -415 -82 callgsubr
        </CharString>
        <CharString name="yen">
          -89 213 209 117 211 712 -20 hstem
          418 364 vstem
          829 750 rmoveto
          363 712 rlineto
          -399 hlineto
          -193 -504 -192 504 rlineto
          -400 hlineto
          354 -712 rlineto
          -190 -211 246 -117 -246 -209 246 -213 364 213 242 209 -242 117 242 211 hlineto
          endchar
        </CharString>
        <CharString name="yoddageshhb">
          -654 839 173 283 -20 hstem
          -106 189 44 -4 callgsubr
          300 419 rmoveto
          215 272 rlineto
          604 -388 -876 vlineto
          -139 593 -104 callgsubr
        </CharString>
        <CharString name="z">
          24 callsubr
          hstem
          49 937 vstem
          965 891 -6 callgsubr
          937 299 -470 vlineto
          endchar
        </CharString>
        <CharString name="zayindageshhb">
          -558 -14 callgsubr
          -279 279 hstemhm
          -90 189 -7 616 -572 37 callsubr
          hintmask 01001000
          8 callgsubr
          hintmask 01000100
          -24 callsubr
          hintmask 00101000
          43 71 51 40 0 vvcurveto
          hintmask 11010100
          -704 -256 -104 callgsubr
        </CharString>
        <CharString name="zcaron">
          24 callsubr
          407 29 hstem
          49 938 vstem
          984 -81 callsubr
          -19 -649 -6 callgsubr
          938 299 -471 vlineto
          endchar
        </CharString>
        <CharString name="zero">
          -89 -20 315 872 316 hstem
          72 393 270 393 vstem
          600 7 callsubr
          -179 -132 -61 -121 -87 hvcurveto
          -87 -121 -43 -192 -259 vvcurveto
          -496 179 -253 349 179 132 60 120 86 vhcurveto
          88 121 43 189 259 vvcurveto
          500 -180 254 -348 vhcurveto
          -316 vmoveto
          49 34 -33 -65 21 hvcurveto
          21 -65 10 -113 -162 vvcurveto
          -161 -10 -113 -21 -64 vhcurveto
          -64 -20 -35 -32 -49 hhcurveto
          -49 -34 31 62 -21 hvcurveto
          -21 62 -10 114 165 vvcurveto
          167 10 114 21 63 vhcurveto
          63 21 34 31 49 hhcurveto
          endchar
        </CharString>
      <CharString index="0">
        92 46 -47 -93 hvcurveto
        -16 vlineto
        -189 -6 rlineto
        -319 -15 -172 -113 -241 vvcurveto
        -116 31 -90 61 -64 vhcurveto
        -64 61 84 -32 107 hhcurveto
        87 70 12 24 55 hvcurveto
        55 24 53 45 53 65 rrcurveto
        8 hlineto
        75 -150 rlineto
        271 743 hlineto
        129 -40 100 -80 73 vhcurveto
        72 -79 -113 36 -145 hhcurveto
        -201 -167 -34 -68 -132 hvcurveto
        568 -545 rmoveto
        -88 vlineto
        -48 -17 -39 -34 -30 vhcurveto
        -30 -33 -41 -15 -47 hhcurveto
        -74 -37 35 69 90 64 47 129 5 hvcurveto
        endchar
      </CharString>
      <CharString index="1">
        -51 callgsubr
        -107 callgsubr
      </CharString>
      <CharString index="2">
        rmoveto
        -57 callsubr
        hvcurveto
        -91 callsubr
        465 246 261 492 -51 callsubr
        hvcurveto
        -324 vmoveto
        -91 callgsubr
      </CharString>
      <CharString index="3">
        -107 callsubr
        endchar
      </CharString>
      <CharString index="4">
        -151 -92 76 127 -5 hvcurveto
        699 174 hlineto
        167 -47 128 -93 89 vhcurveto
        89 -93 -131 45 -171 hhcurveto
        -179 -138 -51 -104 -97 hvcurveto
        -97 -101 -48 -147 -191 vvcurveto
        -185 52 -143 104 -101 vhcurveto
        -100 105 146 -50 189 hhcurveto
        91 78 6 12 65 hvcurveto
        64 11 65 23 61 31 rrcurveto
        -617 644 rmoveto
        124 11 67 56 92 hhcurveto
        100 63 -13 callsubr
        endchar
      </CharString>
      <CharString index="5">
        -100 callgsubr
        106 67 61 95 96 -67 62 -106 hvcurveto
        return
      </CharString>
      <CharString index="6">
        -99 callsubr
        -50 602 rlineto
        -85 callgsubr
        return
      </CharString>
      <CharString index="7">
        -97 callgsubr
        -78 callgsubr
        return
      </CharString>
      <CharString index="8">
        rmoveto
        -21 vlineto
        63 -49 76 -57 89 -63 90 -63 68 -46 46 -29 -89 callgsubr
        return
      </CharString>
      <CharString index="9">
        rmoveto
        -395 -856 hlineto
        -211 -69 -86 -161 -151 -78 88 207 vhcurveto
        858 -397 -889 vlineto
        -191 53 -147 107 -102 vhcurveto
        -102 107 154 -51 199 hhcurveto
        203 157 52 105 30 callgsubr
        109 105 54 149 191 vvcurveto
        endchar
      </CharString>
      <CharString index="10">
        rmoveto
        -104 -66 -58 -100 -99 66 -57 104 105 67 61 95 97 -67 61 -105 hvcurveto
        481 hmoveto
        return
      </CharString>
      <CharString index="11">
        -101 callgsubr
        -576 -205 rmoveto
        -40 -24 -23 -36 -37 23 -22 41 40 26 23 36 35 -26 24 -40 hvcurveto
        endchar
      </CharString>
      <CharString index="12">
        -126 -14 -90 -29 -53 vhcurveto
        -53 -29 -48 -26 -67 hhcurveto
        -96 -39 77 148 hvcurveto
        619 -391 -738 vlineto
        -132 35 -102 69 -73 vhcurveto
        -72 69 97 -36 125 hhcurveto
        157 120 57 104 65 hvcurveto
        23 hlineto
        return
      </CharString>
      <CharString index="13">
        -4 callgsubr
        -100 callsubr
        return
      </CharString>
      <CharString index="14">
        1569 -104 callsubr
        return
      </CharString>
      <CharString index="15">
        1569 -103 callsubr
        return
      </CharString>
      <CharString index="16">
        195 98 -136 -292 -291 -95 -133 -200 -197 -98 141 283 285 99 143 198 hvcurveto
        endchar
      </CharString>
      <CharString index="17">
        rmoveto
        -254 hlineto
        -56 -32 -67 -50 -78 -68 -83 71 -65 50 -46 29 rrcurveto
        -258 -29 hlineto
        101 -99 105 -120 52 -80 rrcurveto
        393 hlineto
        59 87 109 124 88 88 rrcurveto
        return
      </CharString>
      <CharString index="18">
        rrcurveto
        260 29 hlineto
        -59 66 -101 109 -67 77 -35 47 rlinecurve
        return
      </CharString>
      <CharString index="19">
        1569 -99 callgsubr
        return
      </CharString>
      <CharString index="20">
        1571 -102 callgsubr
        return
      </CharString>
      <CharString index="21">
        18 78 12 56 6 34 7 -37 13 -60 21 -85 21 -85 18 -69 15 -53 rrcurveto
        endchar
      </CharString>
      <CharString index="22">
        -377 hlineto
        109 -1295 rlineto
        568 hlineto
        354 321 118 586 53 hvcurveto
        return
      </CharString>
      <CharString index="23">
        -44 callgsubr
        81 -70 132 128 77 71 -50 callsubr
        return
      </CharString>
      <CharString index="24">
        hlineto
        -477 -1468 rlineto
        434 hlineto
        74 274 rlineto
        474 hlineto
        return
      </CharString>
      <CharString index="25">
        rmoveto
        -399 hlineto
        -197 -652 -11 -35 -8 -40 -5 -46 rlinecurve
        -8 hlineto
        -3 48 -7 41 -9 34 -192 650 rcurveline
        -412 hlineto
        446 -1117 -22 -55 -21 -40 -19 -24 rlinecurve
        -19 -25 -23 -19 -26 -13 rrcurveto
        -13 -26 -30 -7 -35 hhcurveto
        -45 -41 4 8 -35 hvcurveto
        -307 vlineto
        -11 55 53 -6 52 hhcurveto
        135 109 32 63 83 hvcurveto
        84 63 71 109 57 153 rrcurveto
        endchar
      </CharString>
      <CharString index="26">
        88 -20 60 -35 -44 vvcurveto
        -31 -17 -16 -35 -43 -49 9 18 -55 vhcurveto
        -205 vlineto
        -19 51 71 -10 91 hhcurveto
        83 66 22 44 50 hvcurveto
        50 43 25 58 73 vvcurveto
        103 -42 68 -128 52 vhcurveto
        return
      </CharString>
      <CharString index="27">
        -35 -64 callgsubr
        return
      </CharString>
      <CharString index="28">
        -267 -101 callgsubr
        return
      </CharString>
      <CharString index="29">
        -107 -65 -58 -100 -97 64 -59 108 return
      </CharString>
      <CharString index="30">
        317 -868 -31 callgsubr
        868 -26 callsubr
        437 317 -437 return
      </CharString>
      <CharString index="31">
        rmoveto
        -342 -71 callsubr
        57 130 59 187 61 244 rrcurveto
        return
      </CharString>
      <CharString index="32">
        rmoveto
        -428 hlineto
        -18 -25 -23 -29 return
      </CharString>
      <CharString index="33">
        vstem
        498 299 -84 callsubr
        return
      </CharString>
      <CharString index="34">
        393 vstem
        578 411 rmoveto
        62 276 -58 callgsubr
        161 14 -130 -228 vhcurveto
        -1140 393 1140 vlineto
        -67 callsubr
        -52 154 -5 vhcurveto
        return
      </CharString>
      <CharString index="35">
        -32 58 57 36 34 52 -54 callgsubr
        return
      </CharString>
      <CharString index="36">
        -103 -19 -92 rrcurveto
        279 hlineto
        53 120 58 187 65 254 rrcurveto
        return
      </CharString>
      <CharString index="37">
        -13 -20 276 248 214 159 276 return
      </CharString>
      <CharString index="38">
        -76 callgsubr
        494 22 rmoveto
        -341 -71 callsubr
        55 127 59 187 62 247 rrcurveto
        endchar
      </CharString>
      <CharString index="39">
        410 7 callsubr
        -47 callgsubr
        33 -113 -28 callgsubr
        244 137 168 293 -34 callgsubr
        299 -1483 rmoveto
        return
      </CharString>
      <CharString index="40">
        557 1743 rmoveto
        -161 -103 -99 -155 -153 103 -99 161 160 112 103 151 149 -115 103 -157 hvcurveto
        -170 vmoveto
        -45 callsubr
        return
      </CharString>
      <CharString index="41">
        129 995 rmoveto
        0 97 13 65 74 22 -66 -59 vhcurveto
        -478 vlineto
        -57 -12 -49 0 vhcurveto
        -303 -299 658 hlineto
        0 45 193 212 vvcurveto
        478 vlineto
        232 -78 200 -341 -147 -80 -16 0 vhcurveto
        return
      </CharString>
      <CharString index="42">
        481 891 rlineto
        -428 hlineto
        -252 -542 -250 542 rlineto
        -430 hlineto
        481 -903 rlineto
        -559 return
      </CharString>
      <CharString index="43">
        -33 -54 -54 return
      </CharString>
      <CharString index="44">
        -49 callgsubr
        -1133 vlineto
        endchar
      </CharString>
      <CharString index="45">
        rmoveto
        -67 -31 -64 -23 -57 -13 rrcurveto
        -13 -57 -63 -6 -69 hhcurveto
        return
      </CharString>
      <CharString index="46">
        490 1163 rmoveto
        0 -4 41 -18 44 vhcurveto
        -6 14 -9 20 -8 13 rrcurveto
        -340 hlineto
        45 -124 18 -97 -123 vvcurveto
        -61 -4 -41 -3 -31 vhcurveto
        -75 -818 rlineto
        382 hlineto
        75 874 rlineto
        return
      </CharString>
      <CharString index="47">
        -101 -134 96 -101 hhcurveto
        -85 callsubr
        return
      </CharString>
      <CharString index="48">
        387 vstem
        23 -61 callsubr
        -1223 387 1221 vlineto
        295 -119 -37 callgsubr
        return
      </CharString>
      <CharString index="49">
        -82 17 rlineto
        -33 7 -90 30 117 vvcurveto
        27 8 121 168 return
      </CharString>
      <CharString index="50">
        145 86 119 223 15 hvcurveto
        return
      </CharString>
      <CharString index="51">
        1348 1071 rmoveto
        224 -1213 -299 787 vlineto
        -178 -473 rlineto
        -54 -145 -35 -224 -93 vvcurveto
        -61 385 61 vlineto
        111 31 166 67 177 vhcurveto
        return
      </CharString>
      <CharString index="52">
        -23 -20 278 203 246 180 266 return
      </CharString>
      <CharString index="53">
        53 -36 34 -57 hvcurveto
        return
      </CharString>
      <CharString index="54">
        1562 -107 callsubr
        return
      </CharString>
      <CharString index="55">
        1462 return
      </CharString>
      <CharString index="56">
        rmoveto
        56 127 105 28 83 hhcurveto
        return
      </CharString>
      <CharString index="57">
        -51 -123 -119 -41 -129 hhcurveto
        -214 -107 141 281 135 26 106 53 77 hvcurveto
        77 53 73 39 94 hhcurveto
        124 104 -39 -51 30 callgsubr
        return
      </CharString>
      <CharString index="58">
        -38 callgsubr
        -391 return
      </CharString>
      <CharString index="59">
        -15 callsubr
        33 53 -54 callgsubr
        return
      </CharString>
      <CharString index="60">
        -236 -137 -164 -293 -141 return
      </CharString>
      <CharString index="61">
        93 42 -17 -55 -45 -39 -22 -77 -120 -99 27 54 -78 hvcurveto
        -233 vlineto
        -47 83 103 -23 123 hhcurveto
        239 136 94 160 hvcurveto
        return
      </CharString>
      <CharString index="62">
        vstem
        197 1460 rmoveto
        -53 callsubr
        45 208 rrcurveto
        return
      </CharString>
      <CharString index="63">
        -139 -74 -69 -123 -121 return
      </CharString>
      <CharString index="64">
        99 125 -96 120 hhcurveto
        return
      </CharString>
      <CharString index="65">
        -39 callsubr
        rmoveto
        return
      </CharString>
      <CharString index="66">
        69 -144 -152 34 -157 hhcurveto
        -434 6 -280 -308 5 -454 rrcurveto
        -242 59 -185 117 -128 vhcurveto
        return
      </CharString>
      <CharString index="67">
        hstem
        -43 callsubr
        vstem
        return
      </CharString>
      <CharString index="68">
        342 137 345 return
      </CharString>
      <CharString index="69">
        1133 return
      </CharString>
      <CharString index="70">
        291 -427 -238 -170 -16 0 vhcurveto
        return
      </CharString>
      <CharString index="71">
        -13 callgsubr
        -101 -134 96 -101 hhcurveto
        return
      </CharString>
      <CharString index="72">
        25 30 18 29 rrcurveto
        37 59 17 52 61 vvcurveto
        149 -108 89 -189 -155 -109 -38 -97 -107 vhcurveto
        endchar
      </CharString>
      <CharString index="73">
        141 -34 111 -69 82 hvcurveto
        82 -69 -92 41 -117 hhcurveto
        return
      </CharString>
      <CharString index="74">
        -273 -282 -23 0 hvcurveto
        555 -278 rmoveto
        123 52 -124 -243 -242 -52 -116 -123 hvcurveto
        return
      </CharString>
      <CharString index="75">
        rmoveto
        243 -1108 -319 618 vlineto
        -633 -899 rlineto
        -244 23 callsubr
        319 -649 vlineto
        endchar
      </CharString>
      <CharString index="76">
        -1462 return
      </CharString>
      <CharString index="77">
        2 1239 rmoveto
        51 24 -64 -153 -156 -24 -61 -51 -37 callsubr
        return
      </CharString>
      <CharString index="78">
        -27 callsubr
        -8 callsubr
        528 hmoveto
        -63 callgsubr
      </CharString>
      <CharString index="79">
        67 -83 hvcurveto
        -83 67 91 -41 115 hhcurveto
        return
      </CharString>
      <CharString index="80">
        hstem
        150 397 459 395 vstem
        return
      </CharString>
      <CharString index="81">
        112 84 -47 -146 return
      </CharString>
      <CharString index="82">
        hstem
        -12 callsubr
        return
      </CharString>
      <CharString index="83">
        -89 5 -119 9 -147 vhcurveto
        -6 hlineto
        -532 1016 rlineto
        -516 -31 callgsubr
        350 659 hlineto
        return
      </CharString>
      <CharString index="84">
        -638 393 312 hstem
        43 565 vstem
        608 393 rmoveto
        312 -565 -312 vlineto
        endchar
      </CharString>
      <CharString index="85">
        -55 callgsubr
        395 21 -19 callsubr
        return
      </CharString>
      <CharString index="86">
        -244 rmoveto
        57 19 -84 -133 -133 -19 -84 -57 -37 callsubr
        return
      </CharString>
      <CharString index="87">
        -149 -501 -113 -495 rlineto
        382 hlineto
        109 482 -1 -1 170 577 rlineto
        return
      </CharString>
      <CharString index="88">
        158 12 callgsubr
        -31 callgsubr
        return
      </CharString>
      <CharString index="89">
        hstem
        74 399 283 29 callsubr
        return
      </CharString>
      <CharString index="90">
        -60 callsubr
        430 21 -25 callgsubr
        vstem
        return
      </CharString>
      <CharString index="91">
        rmoveto
        -103 -53 -61 -109 -109 61 -61 95 93 64 63 107 111 -57 59 -100 hvcurveto
        return
      </CharString>
      <CharString index="92">
        41 528 rlineto
        -356 hlineto
        41 -528 rlineto
        return
      </CharString>
      <CharString index="93">
        -2 callgsubr
        236 299 return
      </CharString>
      <CharString index="94">
        -64 -12 -21 -34 -39 return
      </CharString>
      <CharString index="95">
        135 391 return
      </CharString>
      <CharString index="96">
        0 299 return
      </CharString>
      <CharString index="97">
        -134 -67 91 181 4 callgsubr
        -27 -41 95 hvcurveto
        return
      </CharString>
      <CharString index="98">
        1925 rmoveto
        -13 callgsubr
        hhcurveto
        return
      </CharString>
      <CharString index="99">
        -576 -34 callsubr
        return
      </CharString>
      <CharString index="100">
        -80 callgsubr
        35 -32 return
      </CharString>
      <CharString index="101">
        rmoveto
        242 -889 -299 442 vlineto
        -469 -611 rlineto
        -223 return
      </CharString>
      <CharString index="102">
        -530 173 68 173 return
      </CharString>
      <CharString index="103">
        388 vstem
        return
      </CharString>
      <CharString index="104">
        -477 -300 -237 -38 0 vhcurveto
        return
      </CharString>
      <CharString index="105">
        587 173 return
      </CharString>
      <CharString index="106">
        -124 -51 116 242 158 37 118 60 87 hvcurveto
        return
      </CharString>
      <CharString index="107">
        -247 -446 2002 hstem
        387 268 vstem
        655 return
      </CharString>
      <CharString index="108">
        811 -52 callgsubr
        rlineto
        -297 hlineto
        -811 -31 callgsubr
        rlineto
        return
      </CharString>
      <CharString index="109">
        -67 -105 -110 -33 -115 hhcurveto
        return
      </CharString>
      <CharString index="110">
        -492 312 1313 -20 return
      </CharString>
      <CharString index="111">
        180 72 103 127 87 74 return
      </CharString>
      <CharString index="112">
        391 hintmask 00000000
        return
      </CharString>
      <CharString index="113">
        307 -20 -20 hstemhm
        return
      </CharString>
      <CharString index="114">
        hstemhm
        0 1487 return
      </CharString>
      <CharString index="115">
        708 -42 callgsubr
        -616 -299 257 hlineto
        return
      </CharString>
      <CharString index="116">
        -155 -100 83 120 -5 hvcurveto
        696 172 hlineto
        return
      </CharString>
      <CharString index="117">
        -15 25 29 vvcurveto
        53 44 41 103 99 118 -31 -63 return
      </CharString>
      <CharString index="118">
        305 rlineto
        70 -157 -155 35 -151 hhcurveto
        return
      </CharString>
      <CharString index="119">
        -52 callgsubr
        rmoveto
        return
      </CharString>
      <CharString index="120">
        314 hstemhm
        return
      </CharString>
      <CharString index="121">
        15 callgsubr
        102 hlineto
        109 55 -49 return
      </CharString>
      <CharString index="122">
        -111 -319 rmoveto
        return
      </CharString>
      <CharString index="123">
        300 hstem
        return
      </CharString>
      <CharString index="124">
        85 -6 124 -13 162 vhcurveto
        9 hlineto
        return
      </CharString>
      <CharString index="125">
        hhcurveto
        154 138 27 54 122 hvcurveto
        return
      </CharString>
      <CharString index="126">
        222 139 194 146 211 return
      </CharString>
      <CharString index="127">
        rmoveto
        116 -393 -116 vlineto
        endchar
      </CharString>
      <CharString index="128">
        hstem
        158 397 vstem
        return
      </CharString>
      <CharString index="129">
        -148 244 return
      </CharString>
      <CharString index="130">
        189 vstem
        return
      </CharString>
      <CharString index="131">
        63 -141 -125 33 -149 hhcurveto
        return
      </CharString>
      <CharString index="132">
        301 hstemhm
        86 393 -380 107 return
      </CharString>
      <CharString index="133">
        319 -100 262 -242 271 return
      </CharString>
      <CharString index="134">
        -197 -20 284 625 264 return
      </CharString>
      <CharString index="135">
        293 -5 -20 172 287 hstemhm
        return
      </CharString>
      <CharString index="136">
        -112 -50 81 195 hvcurveto
        endchar
      </CharString>
      <CharString index="137">
        108 hvcurveto
        return
      </CharString>
      <CharString index="138">
        rmoveto
        839 -268 -839 vlineto
        return
      </CharString>
      <CharString index="139">
        -38 0 319 824 319 return
      </CharString>
      <CharString index="140">
        256 -388 -555 642 return
      </CharString>
      <CharString index="141">
        -107 -20 321 866 316 return
      </CharString>
      <CharString index="142">
        -554 -324 1827 hstem
        return
      </CharString>
      <CharString index="143">
        12 -18 -20 vvcurveto
        -39 -42 -19 -85 return
      </CharString>
      <CharString index="144">
        hintmask 00000000
        hintmask 11101100
        return
      </CharString>
      <CharString index="145">
        hstemhm
        -12 callgsubr
        return
      </CharString>
      <CharString index="146">
        996 299 return
      </CharString>
      <CharString index="147">
        116 387 return
      </CharString>
      <CharString index="148">
        80 991 hstem
        return
      </CharString>
</ttFont>
